<?xml version="1.0" encoding="utf-8"?>
<!-- Generator: Adobe Illustrator 21.0.2, SVG Export Plug-In . SVG Version: 6.00 Build 0)  -->
<svg version="1.1" id="Layer_1" xmlns="http://www.w3.org/2000/svg" xmlns:xlink="http://www.w3.org/1999/xlink" x="0px" y="0px"
	 viewBox="0 0 820 696" style="enable-background:new 0 0 820 696;" xml:space="preserve">
<style type="text/css">
	.st0{fill:none;}
	.st1{fill:#A3D8CE;}
	.st2{font-family:'CrimsonText-Roman';}
	.st3{font-size:48px;}
	.st4{fill:#8CD3C7;}
	.st5{font-family:'Oswald-Regular';}
	.st6{font-size:200px;}
</style>
<rect x="293" y="111.6" class="st0" width="302" height="53.4"/>
<text transform="matrix(1.1 0 0 1 293 144.1328)" class="st1 st2 st3">Japanese Bang</text>
<rect x="245.6" y="165" class="st0" width="413.4" height="51"/>
<text transform="matrix(1.1 0 0 1 245.5918 197.5312)" class="st1 st2 st3">Hmong Chinese Ko</text>
<rect x="220.6" y="215" class="st0" width="438.4" height="51"/>
<text transform="matrix(1.1 0 0 1 220.5918 247.5312)" class="st1 st2 st3">Thai Singaporean Fil</text>
<rect x="224.6" y="267" class="st0" width="438.4" height="51"/>
<text transform="matrix(1.1 0 0 1 224.5918 299.5312)" class="st1 st2 st3">Pakistani Sri Lanka</text>
<rect x="224.6" y="317" class="st0" width="438.4" height="51"/>
<text transform="matrix(1.1 0 0 1 224.5918 349.5312)" class="st1 st2 st3">Bhutanese Vietname</text>
<rect x="237" y="365" class="st0" width="408" height="51"/>
<text transform="matrix(1.1 0 0 1 237 397.5312)" class="st1 st2 st3">Okinawan Malaysia</text>
<rect x="279" y="416" class="st0" width="329" height="51"/>
<text transform="matrix(1.1 0 0 1 279 448.5312)" class="st1 st2 st3">Burmese Indian</text>
<rect x="349" y="471" class="st0" width="200" height="51"/>
<text transform="matrix(1.1 0 0 1 349 503.5312)" class="st1 st2 st3">Taiwanes</text>
<rect x="225.8" y="201.6" class="st0" width="1642.2" height="188.9"/>
<text transform="matrix(1.1 0 0 1 225.8018 363.6016)" class="st4 st5 st6">Asian</text>
<g>
	<g>
		<path d="M444,82c28.9,0,56.9,5.7,83.3,16.8c25.5,10.8,48.4,26.2,68,45.9c19.7,19.7,35.1,42.6,45.9,68
			c11.2,26.4,16.8,54.4,16.8,83.3s-5.7,56.9-16.8,83.3c-10.8,25.5-26.2,48.4-45.9,68s-42.6,35.1-68,45.9
			C500.9,504.3,472.9,510,444,510s-56.9-5.7-83.3-16.8c-25.5-10.8-48.4-26.2-68-45.9c-19.7-19.7-35.1-42.6-45.9-68
			C235.7,352.9,230,324.9,230,296s5.7-56.9,16.8-83.3c10.8-25.5,26.2-48.4,45.9-68c19.7-19.7,42.6-35.1,68-45.9
			C387.1,87.7,415.1,82,444,82 M444,57c-132,0-239,107-239,239s107,239,239,239s239-107,239-239S576,57,444,57L444,57z"/>
	</g>
	<g>
		<rect x="104" y="519" transform="matrix(0.7071 -0.7071 0.7071 0.7071 -335.4765 300.088)" width="181" height="72"/>
	</g>
</g>
</svg>
