<?xml version="1.0" encoding="utf-8"?>
<!-- Generator: Adobe Illustrator 21.0.2, SVG Export Plug-In . SVG Version: 6.00 Build 0)  -->
<svg version="1.1"
	 id="Layer_1" xmlns:cc="http://creativecommons.org/ns#" xmlns:dc="http://purl.org/dc/elements/1.1/" xmlns:inkscape="http://www.inkscape.org/namespaces/inkscape" xmlns:rdf="http://www.w3.org/1999/02/22-rdf-syntax-ns#" xmlns:sodipodi="http://sodipodi.sourceforge.net/DTD/sodipodi-0.dtd" xmlns:svg="http://www.w3.org/2000/svg"
	 xmlns="http://www.w3.org/2000/svg" xmlns:xlink="http://www.w3.org/1999/xlink" x="0px" y="0px" viewBox="0 0 38 48"
	 style="enable-background:new 0 0 38 48;" xml:space="preserve">
<path d="M16,0c-1.9,0-3.4,1.3-3.9,3H4v2h8.1c0.4,1.7,2,3,3.9,3h6c1.9,0,3.4-1.3,3.9-3H34v0c0.5,0,1,0.2,1.4,0.6C35.8,6,36,6.5,36,7
	h2c0-1.1-0.4-2.1-1.2-2.8C36.1,3.4,35.1,3,34,3v0h-8.1c-0.4-1.7-2-3-3.9-3H16z M16,2h6c1.1,0,2,0.9,2,2s-0.9,2-2,2h-6
	c-1.1,0-2-0.9-2-2S14.9,2,16,2z M4,3C2.9,3,1.9,3.4,1.2,4.2C0.4,4.9,0,5.9,0,7h2c0-0.5,0.2-1,0.6-1.4C3,5.2,3.5,5,4,5V3z M0,7v37v0
	c0,1.1,0.4,2.1,1.2,2.8C1.9,47.6,2.9,48,4,48v-2c-0.5,0-1-0.2-1.4-0.6C2.2,45,2,44.5,2,44c0,0,0,0,0,0V7H0z M36,7v37
	c0,0.5-0.2,1-0.6,1.4C35,45.8,34.5,46,34,46v0H4v2h30v0c1.1,0,2.1-0.4,2.8-1.2c0.7-0.7,1.2-1.8,1.2-2.8V7H36z M14,15
	c-0.4,0-0.7,0.2-0.9,0.5l-3,5.1l-2.6-1.5C7,18.9,6.4,19,6.1,19.5C5.9,20,6,20.6,6.5,20.9c0,0,0,0,0,0l3.5,2c0.5,0.3,1.1,0.1,1.4-0.4
	l3.5-6c0.3-0.5,0.1-1.1-0.3-1.4C14.4,15,14.2,15,14,15z M20,16c-0.6,0-1,0.4-1,1s0.4,1,1,1c0,0,0,0,0,0h11c0.6,0,1-0.4,1-1
	c0-0.6-0.4-1-1-1c0,0,0,0,0,0H20z M20,20c-0.6,0-1,0.4-1,1s0.4,1,1,1c0,0,0,0,0,0h7c0.6,0,1-0.4,1-1c0-0.6-0.4-1-1-1c0,0,0,0,0,0H20
	z M14,30c-0.4,0-0.7,0.2-0.9,0.5l-3,5.1l-2.6-1.5C7,33.9,6.4,34,6.1,34.5C5.9,35,6,35.6,6.5,35.9c0,0,0,0,0,0l3.5,2
	c0.5,0.3,1.1,0.1,1.4-0.4l3.5-6c0.3-0.5,0.1-1.1-0.3-1.4C14.4,30,14.2,30,14,30z M20,31c-0.6,0-1,0.4-1,1c0,0.6,0.4,1,1,1
	c0,0,0,0,0,0h11c0.6,0,1-0.4,1-1c0-0.6-0.4-1-1-1c0,0,0,0,0,0H20z M20,35c-0.6,0-1,0.4-1,1c0,0.6,0.4,1,1,1c0,0,0,0,0,0h7
	c0.6,0,1-0.4,1-1c0-0.6-0.4-1-1-1c0,0,0,0,0,0H20z"/>
</svg>
