<?xml version="1.0" encoding="utf-8"?>
<!-- Generator: Adobe Illustrator 21.0.2, SVG Export Plug-In . SVG Version: 6.00 Build 0)  -->
<svg version="1.1" id="Layer_1" xmlns="http://www.w3.org/2000/svg" xmlns:xlink="http://www.w3.org/1999/xlink" x="0px" y="0px"
	 viewBox="0 0 624 244" style="enable-background:new 0 0 624 244;" xml:space="preserve">
<style type="text/css">
	.st0{fill:none;}
	.st1{font-family:'CrimsonText-Roman';}
	.st2{font-size:36px;}
	.st3{fill:#EFF993;}
	.st4{font-family:'CrimsonText-Bold';}
</style>
<rect x="15" y="140.6" class="st0" width="240" height="29.4"/>
<text transform="matrix(1 0 0 1 15 164.9956)" class="st1 st2">Asian Americans</text>
<rect x="36" y="183.6" class="st0" width="238" height="46.4"/>
<text transform="matrix(1 0 0 1 36 207.9956)" class="st1 st2">U.S. population</text>
<rect x="287" y="141" class="st3" width="197" height="28.5"/>
<rect x="287" y="184" class="st3" width="116" height="29"/>
<rect x="495" y="140.6" class="st0" width="93" height="29.4"/>
<text transform="matrix(1 0 0 1 495 165.0308)" class="st4 st2">47%</text>
<rect x="416" y="183.6" class="st0" width="93" height="29.4"/>
<text transform="matrix(1 0 0 1 416 208.0308)" class="st4 st2">28</text>
<rect x="14.8" y="32" class="st0" width="581.3" height="73"/>
<text transform="matrix(1 0 0 1 21.6318 56.4336)" class="st4 st2">Percentage of Asian Americans with</text>
<text transform="matrix(1 0 0 1 101.9318 99.6336)" class="st4 st2">at least a bachelor’s degree</text>
</svg>
