<?xml version="1.0" encoding="utf-8"?>
<!-- Generator: Adobe Illustrator 21.0.2, SVG Export Plug-In . SVG Version: 6.00 Build 0)  -->
<svg version="1.1" id="Layer_1" xmlns="http://www.w3.org/2000/svg" xmlns:xlink="http://www.w3.org/1999/xlink" x="0px" y="0px"
	 viewBox="0 0 1794 1842" style="enable-background:new 0 0 1794 1842;" xml:space="preserve">
<style type="text/css">
	.st0{fill:#8CD3C7;}
	.st1{fill:none;}
	.st2{font-family:'CrimsonText-Bold';}
	.st3{font-size:60px;}
	.st4{font-family:'CrimsonText-Roman';}
</style>
<g>
	<g>
		<path class="st0" d="M274.5,497.9c4.3,0,7.8-3.3,8.1-7.5c0.4-6.9,0.6-13.3,0.6-19.2c0-30.2-4.9-47-11.6-57c-3.3-5-7.2-8.2-10.8-10
			c-3.4-1.7-6.4-2.1-8.2-2.1c-0.2,0-0.3,0-0.5,0h-39.4c-0.2,0-0.3,0-0.5,0c-1.8,0-4.8,0.4-8.2,2.1c-5.4,2.7-11.3,8.5-15.4,18.9
			c-4.2,10.4-6.9,25.4-7,48.1c0,5.9,0.2,12.2,0.6,19.2c0.3,4.3,3.8,7.5,8.1,7.5c0.2,0,0.3,0,0.5,0c4.5-0.3,7.9-4.1,7.6-8.5
			c-0.4-6.7-0.6-12.7-0.6-18.3c0-24.3,3.5-37.9,7-45v150c0,5.8,3.8,11.1,9.5,12.4c8.2,1.9,15.5-4.2,15.5-12V486h5v90.1
			c0,5.8,3.8,11.1,9.5,12.4c8.2,1.9,15.5-4.2,15.5-12V426.2c0.6,1.2,1.2,2.6,1.8,4.2c2.8,7.8,5.2,20.7,5.2,40.7
			c0,5.5-0.2,11.6-0.6,18.3c-0.3,4.4,3.1,8.2,7.6,8.5C274.2,497.9,274.4,497.9,274.5,497.9z"/>
		<circle class="st0" cx="232.6" cy="374.3" r="22.5"/>
	</g>
</g>
<g>
	<g>
		<path class="st0" d="M407.5,497.9c4.3,0,7.8-3.3,8.1-7.5c0.4-6.9,0.6-13.3,0.6-19.2c0-30.2-4.9-47-11.6-57c-3.3-5-7.2-8.2-10.8-10
			c-3.4-1.7-6.4-2.1-8.2-2.1c-0.2,0-0.3,0-0.5,0h-39.4c-0.2,0-0.3,0-0.5,0c-1.8,0-4.8,0.4-8.2,2.1c-5.4,2.7-11.3,8.5-15.4,18.9
			c-4.2,10.4-6.9,25.4-7,48.1c0,5.9,0.2,12.2,0.6,19.2c0.3,4.3,3.8,7.5,8.1,7.5c0.2,0,0.3,0,0.5,0c4.5-0.3,7.9-4.1,7.6-8.5
			c-0.4-6.7-0.6-12.7-0.6-18.3c0-24.3,3.5-37.9,7-45v150c0,5.8,3.8,11.1,9.5,12.4c8.2,1.9,15.5-4.2,15.5-12V486h5v90.1
			c0,5.8,3.8,11.1,9.5,12.4c8.2,1.9,15.5-4.2,15.5-12V426.2c0.6,1.2,1.2,2.6,1.8,4.2c2.8,7.8,5.2,20.7,5.2,40.7
			c0,5.5-0.2,11.6-0.6,18.3c-0.3,4.4,3.1,8.2,7.6,8.5C407.2,497.9,407.4,497.9,407.5,497.9z"/>
		<circle class="st0" cx="365.6" cy="374.3" r="22.5"/>
	</g>
</g>
<g>
	<g>
		<path class="st0" d="M540.5,495.9c4.3,0,7.8-3.3,8.1-7.5c0.4-6.9,0.6-13.3,0.6-19.2c0-30.2-4.9-47-11.6-57c-3.3-5-7.2-6.2-10.8-8
			c-3.4-1.7-6.4-2.1-8.2-2.1c-0.2,0-0.3,0-0.5,0h-39.4c-0.2,0-0.3,0-0.5,0c-1.8,0-4.8,0.4-8.2,2.1c-5.4,2.7-11.3,6.5-15.4,16.9
			c-4.2,10.4-6.9,25.4-7,48.1c0,5.9,0.2,12.2,0.6,19.2c0.3,4.3,3.8,7.5,8.1,7.5c0.2,0,0.3,0,0.5,0c4.5-0.3,7.9-2.1,7.6-6.5
			c-0.4-6.7-0.6-12.7-0.6-18.3c0-24.3,3.5-37.9,7-45v150c0,5.8,3.8,11.1,9.5,12.4c8.2,1.9,15.5-4.2,15.5-12V486h5v90.1
			c0,5.8,3.8,11.1,9.5,12.4c8.2,1.9,15.5-4.2,15.5-12V426.2c0.6,1.2,1.2,2.6,1.8,4.2c2.8,7.8,5.2,20.7,5.2,40.7
			c0,5.5-0.2,11.6-0.6,18.3c-0.3,4.4,3.1,6.2,7.6,6.5C540.2,495.9,540.4,495.9,540.5,495.9z"/>
		<circle class="st0" cx="498.6" cy="374.3" r="22.5"/>
	</g>
</g>
<g>
	<g>
		<path class="st0" d="M673.5,497.9c4.3,0,7.8-3.3,8.1-7.5c0.4-6.9,0.6-13.3,0.6-19.2c0-30.2-4.9-47-11.6-57c-3.3-5-7.2-8.2-10.8-10
			c-3.4-1.7-6.4-2.1-8.2-2.1c-0.2,0-0.3,0-0.5,0h-39.4c-0.2,0-0.3,0-0.5,0c-1.8,0-4.8,0.4-8.2,2.1c-5.4,2.7-11.3,8.5-15.4,18.9
			c-4.2,10.4-6.9,25.4-7,48.1c0,5.9,0.2,12.2,0.6,19.2c0.3,4.3,3.8,7.5,8.1,7.5c0.2,0,0.3,0,0.5,0c4.5-0.3,7.9-4.1,7.6-8.5
			c-0.4-6.7-0.6-12.7-0.6-18.3c0-24.3,3.5-37.9,7-45v150c0,5.8,3.8,11.1,9.5,12.4c8.2,1.9,15.5-4.2,15.5-12V486h5v90.1
			c0,5.8,3.8,11.1,9.5,12.4c8.2,1.9,15.5-4.2,15.5-12V426.2c0.6,1.2,1.2,2.6,1.8,4.2c2.8,7.8,5.2,20.7,5.2,40.7
			c0,5.5-0.2,11.6-0.6,18.3c-0.3,4.4,3.1,8.2,7.6,8.5C673.2,497.9,673.4,497.9,673.5,497.9z"/>
		<circle class="st0" cx="631.6" cy="374.3" r="22.5"/>
	</g>
</g>
<g>
	<g>
		<path class="st0" d="M806.5,497.9c4.3,0,7.8-3.3,8.1-7.5c0.4-6.9,0.6-13.3,0.6-19.2c0-30.2-4.9-47-11.6-57c-3.3-5-7.2-8.2-10.8-10
			c-3.4-1.7-6.4-2.1-8.2-2.1c-0.2,0-0.3,0-0.5,0h-39.4c-0.2,0-0.3,0-0.5,0c-1.8,0-4.8,0.4-8.2,2.1c-5.4,2.7-11.3,8.5-15.4,18.9
			c-4.2,10.4-6.9,25.4-7,48.1c0,5.9,0.2,12.2,0.6,19.2c0.3,4.3,3.8,7.5,8.1,7.5c0.2,0,0.3,0,0.5,0c4.5-0.3,7.9-4.1,7.6-8.5
			c-0.4-6.7-0.6-12.7-0.6-18.3c0-24.3,3.5-37.9,7-45v150c0,5.8,3.8,11.1,9.5,12.4c8.2,1.9,15.5-4.2,15.5-12V486h5v90.1
			c0,5.8,3.8,11.1,9.5,12.4c8.2,1.9,15.5-4.2,15.5-12V426.2c0.6,1.2,1.2,2.6,1.8,4.2c2.8,7.8,5.2,20.7,5.2,40.7
			c0,5.5-0.2,11.6-0.6,18.3c-0.3,4.4,3.1,8.2,7.6,8.5C806.2,497.9,806.4,497.9,806.5,497.9z"/>
		<circle class="st0" cx="764.6" cy="374.3" r="22.5"/>
	</g>
</g>
<g>
	<g>
		<path class="st0" d="M934.5,497.9c4.3,0,7.8-3.3,8.1-7.5c0.4-6.9,0.6-13.3,0.6-19.2c0-30.2-4.9-47-11.6-57c-3.3-5-7.2-8.2-10.8-10
			c-3.4-1.7-6.4-2.1-8.2-2.1c-0.2,0-0.3,0-0.5,0h-39.4c-0.2,0-0.3,0-0.5,0c-1.8,0-4.8,0.4-8.2,2.1c-5.4,2.7-11.3,8.5-15.4,18.9
			c-4.2,10.4-6.9,25.4-7,48.1c0,5.9,0.2,12.2,0.6,19.2c0.3,4.3,3.8,7.5,8.1,7.5c0.2,0,0.3,0,0.5,0c4.5-0.3,7.9-4.1,7.6-8.5
			c-0.4-6.7-0.6-12.7-0.6-18.3c0-24.3,3.5-37.9,7-45v150c0,5.8,3.8,11.1,9.5,12.4c8.2,1.9,15.5-4.2,15.5-12V486h5v90.1
			c0,5.8,3.8,11.1,9.5,12.4c8.2,1.9,15.5-4.2,15.5-12V426.2c0.6,1.2,1.2,2.6,1.8,4.2c2.8,7.8,5.2,20.7,5.2,40.7
			c0,5.5-0.2,11.6-0.6,18.3c-0.3,4.4,3.1,8.2,7.6,8.5C934.2,497.9,934.4,497.9,934.5,497.9z"/>
		<circle class="st0" cx="892.6" cy="374.3" r="22.5"/>
	</g>
</g>
<g>
	<g>
		<path class="st0" d="M1067.5,497.9c4.3,0,7.8-3.3,8.1-7.5c0.4-6.9,0.6-13.3,0.6-19.2c0-30.2-4.9-47-11.6-57
			c-3.3-5-7.2-8.2-10.8-10c-3.4-1.7-6.4-2.1-8.2-2.1c-0.2,0-0.3,0-0.5,0h-39.4c-0.2,0-0.3,0-0.5,0c-1.8,0-4.8,0.4-8.2,2.1
			c-5.4,2.7-11.3,8.5-15.4,18.9c-4.2,10.4-6.9,25.4-7,48.1c0,5.9,0.2,12.2,0.6,19.2c0.3,4.3,3.8,7.5,8.1,7.5c0.2,0,0.3,0,0.5,0
			c4.5-0.3,7.9-4.1,7.6-8.5c-0.4-6.7-0.6-12.7-0.6-18.3c0-24.3,3.5-37.9,7-45v150c0,5.8,3.8,11.1,9.5,12.4c8.2,1.9,15.5-4.2,15.5-12
			V486h5v90.1c0,5.8,3.8,11.1,9.5,12.4c8.2,1.9,15.5-4.2,15.5-12V426.2c0.6,1.2,1.2,2.6,1.8,4.2c2.8,7.8,5.2,20.7,5.2,40.7
			c0,5.5-0.2,11.6-0.6,18.3c-0.3,4.4,3.1,8.2,7.6,8.5C1067.2,497.9,1067.4,497.9,1067.5,497.9z"/>
		<circle class="st0" cx="1025.6" cy="374.3" r="22.5"/>
	</g>
</g>
<g>
	<g>
		<path class="st0" d="M1200.5,495.9c4.3,0,7.8-3.3,8.1-7.5c0.4-6.9,0.6-13.3,0.6-19.2c0-30.2-4.9-47-11.6-57c-3.3-5-7.2-6.2-10.8-8
			c-3.4-1.7-6.4-2.1-8.2-2.1c-0.2,0-0.3,0-0.5,0h-39.4c-0.2,0-0.3,0-0.5,0c-1.8,0-4.8,0.4-8.2,2.1c-5.4,2.7-11.3,6.5-15.4,16.9
			c-4.2,10.4-6.9,25.4-7,48.1c0,5.9,0.2,12.2,0.6,19.2c0.3,4.3,3.8,7.5,8.1,7.5c0.2,0,0.3,0,0.5,0c4.5-0.3,7.9-2.1,7.6-6.5
			c-0.4-6.7-0.6-12.7-0.6-18.3c0-24.3,3.5-37.9,7-45v150c0,5.8,3.8,11.1,9.5,12.4c8.2,1.9,15.5-4.2,15.5-12V486h5v90.1
			c0,5.8,3.8,11.1,9.5,12.4c8.2,1.9,15.5-4.2,15.5-12V426.2c0.6,1.2,1.2,2.6,1.8,4.2c2.8,7.8,5.2,20.7,5.2,40.7
			c0,5.5-0.2,11.6-0.6,18.3c-0.3,4.4,3.1,6.2,7.6,6.5C1200.2,495.9,1200.4,495.9,1200.5,495.9z"/>
		<circle class="st0" cx="1158.6" cy="374.3" r="22.5"/>
	</g>
</g>
<g>
	<g>
		<path class="st0" d="M1333.5,497.9c4.3,0,7.8-3.3,8.1-7.5c0.4-6.9,0.6-13.3,0.6-19.2c0-30.2-4.9-47-11.6-57
			c-3.3-5-7.2-8.2-10.8-10c-3.4-1.7-6.4-2.1-8.2-2.1c-0.2,0-0.3,0-0.5,0h-39.4c-0.2,0-0.3,0-0.5,0c-1.8,0-4.8,0.4-8.2,2.1
			c-5.4,2.7-11.3,8.5-15.4,18.9c-4.2,10.4-6.9,25.4-7,48.1c0,5.9,0.2,12.2,0.6,19.2c0.3,4.3,3.8,7.5,8.1,7.5c0.2,0,0.3,0,0.5,0
			c4.5-0.3,7.9-4.1,7.6-8.5c-0.4-6.7-0.6-12.7-0.6-18.3c0-24.3,3.5-37.9,7-45v150c0,5.8,3.8,11.1,9.5,12.4c8.2,1.9,15.5-4.2,15.5-12
			V486h5v90.1c0,5.8,3.8,11.1,9.5,12.4c8.2,1.9,15.5-4.2,15.5-12V426.2c0.6,1.2,1.2,2.6,1.8,4.2c2.8,7.8,5.2,20.7,5.2,40.7
			c0,5.5-0.2,11.6-0.6,18.3c-0.3,4.4,3.1,8.2,7.6,8.5C1333.2,497.9,1333.4,497.9,1333.5,497.9z"/>
		<circle class="st0" cx="1291.6" cy="374.3" r="22.5"/>
	</g>
</g>
<g>
	<g>
		<path class="st0" d="M1466.5,497.9c4.3,0,7.8-3.3,8.1-7.5c0.4-6.9,0.6-13.3,0.6-19.2c0-30.2-4.9-47-11.6-57
			c-3.3-5-7.2-8.2-10.8-10c-3.4-1.7-6.4-2.1-8.2-2.1c-0.2,0-0.3,0-0.5,0h-39.4c-0.2,0-0.3,0-0.5,0c-1.8,0-4.8,0.4-8.2,2.1
			c-5.4,2.7-11.3,8.5-15.4,18.9c-4.2,10.4-6.9,25.4-7,48.1c0,5.9,0.2,12.2,0.6,19.2c0.3,4.3,3.8,7.5,8.1,7.5c0.2,0,0.3,0,0.5,0
			c4.5-0.3,7.9-4.1,7.6-8.5c-0.4-6.7-0.6-12.7-0.6-18.3c0-24.3,3.5-37.9,7-45v150c0,5.8,3.8,11.1,9.5,12.4c8.2,1.9,15.5-4.2,15.5-12
			V486h5v90.1c0,5.8,3.8,11.1,9.5,12.4c8.2,1.9,15.5-4.2,15.5-12V426.2c0.6,1.2,1.2,2.6,1.8,4.2c2.8,7.8,5.2,20.7,5.2,40.7
			c0,5.5-0.2,11.6-0.6,18.3c-0.3,4.4,3.1,8.2,7.6,8.5C1466.2,497.9,1466.4,497.9,1466.5,497.9z"/>
		<circle class="st0" cx="1424.6" cy="374.3" r="22.5"/>
	</g>
</g>
<g>
	<g>
		<path class="st0" d="M274.5,758.9c4.3,0,7.8-3.3,8.1-7.5c0.4-6.9,0.6-13.3,0.6-19.2c0-30.2-4.9-47-11.6-57c-3.3-5-7.2-8.2-10.8-10
			c-3.4-1.7-6.4-2.1-8.2-2.1c-0.2,0-0.3,0-0.5,0h-39.4c-0.2,0-0.3,0-0.5,0c-1.8,0-4.8,0.4-8.2,2.1c-5.4,2.7-11.3,8.5-15.4,18.9
			c-4.2,10.4-6.9,25.4-7,48.1c0,5.9,0.2,12.2,0.6,19.2c0.3,4.3,3.8,7.5,8.1,7.5c0.2,0,0.3,0,0.5,0c4.5-0.3,7.9-4.1,7.6-8.5
			c-0.4-6.7-0.6-12.7-0.6-18.3c0-24.3,3.5-37.9,7-45v150c0,5.8,3.8,11.1,9.5,12.4c8.2,1.9,15.5-4.2,15.5-12V747h5v90.1
			c0,5.8,3.8,11.1,9.5,12.4c8.2,1.9,15.5-4.2,15.5-12V687.2c0.6,1.2,1.2,2.6,1.8,4.2c2.8,7.8,5.2,20.7,5.2,40.7
			c0,5.5-0.2,11.6-0.6,18.3c-0.3,4.4,3.1,8.2,7.6,8.5C274.2,758.9,274.4,758.9,274.5,758.9z"/>
		<circle class="st0" cx="232.6" cy="635.3" r="22.5"/>
	</g>
</g>
<g>
	<g>
		<path class="st0" d="M407.5,758.9c4.3,0,7.8-3.3,8.1-7.5c0.4-6.9,0.6-13.3,0.6-19.2c0-30.2-4.9-47-11.6-57c-3.3-5-7.2-8.2-10.8-10
			c-3.4-1.7-6.4-2.1-8.2-2.1c-0.2,0-0.3,0-0.5,0h-39.4c-0.2,0-0.3,0-0.5,0c-1.8,0-4.8,0.4-8.2,2.1c-5.4,2.7-11.3,8.5-15.4,18.9
			c-4.2,10.4-6.9,25.4-7,48.1c0,5.9,0.2,12.2,0.6,19.2c0.3,4.3,3.8,7.5,8.1,7.5c0.2,0,0.3,0,0.5,0c4.5-0.3,7.9-4.1,7.6-8.5
			c-0.4-6.7-0.6-12.7-0.6-18.3c0-24.3,3.5-37.9,7-45v150c0,5.8,3.8,11.1,9.5,12.4c8.2,1.9,15.5-4.2,15.5-12V747h5v90.1
			c0,5.8,3.8,11.1,9.5,12.4c8.2,1.9,15.5-4.2,15.5-12V687.2c0.6,1.2,1.2,2.6,1.8,4.2c2.8,7.8,5.2,20.7,5.2,40.7
			c0,5.5-0.2,11.6-0.6,18.3c-0.3,4.4,3.1,8.2,7.6,8.5C407.2,758.9,407.4,758.9,407.5,758.9z"/>
		<circle class="st0" cx="365.6" cy="635.3" r="22.5"/>
	</g>
</g>
<g>
	<g>
		<path class="st0" d="M540.5,756.9c4.3,0,7.8-3.3,8.1-7.5c0.4-6.9,0.6-13.3,0.6-19.2c0-30.2-4.9-47-11.6-57c-3.3-5-7.2-6.2-10.8-8
			c-3.4-1.7-6.4-2.1-8.2-2.1c-0.2,0-0.3,0-0.5,0h-39.4c-0.2,0-0.3,0-0.5,0c-1.8,0-4.8,0.4-8.2,2.1c-5.4,2.7-11.3,6.5-15.4,16.9
			c-4.2,10.4-6.9,25.4-7,48.1c0,5.9,0.2,12.2,0.6,19.2c0.3,4.3,3.8,7.5,8.1,7.5c0.2,0,0.3,0,0.5,0c4.5-0.3,7.9-2.1,7.6-6.5
			c-0.4-6.7-0.6-12.7-0.6-18.3c0-24.3,3.5-37.9,7-45v150c0,5.8,3.8,11.1,9.5,12.4c8.2,1.9,15.5-4.2,15.5-12V747h5v90.1
			c0,5.8,3.8,11.1,9.5,12.4c8.2,1.9,15.5-4.2,15.5-12V687.2c0.6,1.2,1.2,2.6,1.8,4.2c2.8,7.8,5.2,20.7,5.2,40.7
			c0,5.5-0.2,11.6-0.6,18.3c-0.3,4.4,3.1,6.2,7.6,6.5C540.2,756.9,540.4,756.9,540.5,756.9z"/>
		<circle class="st0" cx="498.6" cy="635.3" r="22.5"/>
	</g>
</g>
<g>
	<g>
		<path class="st0" d="M673.5,758.9c4.3,0,7.8-3.3,8.1-7.5c0.4-6.9,0.6-13.3,0.6-19.2c0-30.2-4.9-47-11.6-57c-3.3-5-7.2-8.2-10.8-10
			c-3.4-1.7-6.4-2.1-8.2-2.1c-0.2,0-0.3,0-0.5,0h-39.4c-0.2,0-0.3,0-0.5,0c-1.8,0-4.8,0.4-8.2,2.1c-5.4,2.7-11.3,8.5-15.4,18.9
			c-4.2,10.4-6.9,25.4-7,48.1c0,5.9,0.2,12.2,0.6,19.2c0.3,4.3,3.8,7.5,8.1,7.5c0.2,0,0.3,0,0.5,0c4.5-0.3,7.9-4.1,7.6-8.5
			c-0.4-6.7-0.6-12.7-0.6-18.3c0-24.3,3.5-37.9,7-45v150c0,5.8,3.8,11.1,9.5,12.4c8.2,1.9,15.5-4.2,15.5-12V747h5v90.1
			c0,5.8,3.8,11.1,9.5,12.4c8.2,1.9,15.5-4.2,15.5-12V687.2c0.6,1.2,1.2,2.6,1.8,4.2c2.8,7.8,5.2,20.7,5.2,40.7
			c0,5.5-0.2,11.6-0.6,18.3c-0.3,4.4,3.1,8.2,7.6,8.5C673.2,758.9,673.4,758.9,673.5,758.9z"/>
		<circle class="st0" cx="631.6" cy="635.3" r="22.5"/>
	</g>
</g>
<g>
	<g>
		<path class="st0" d="M806.5,758.9c4.3,0,7.8-3.3,8.1-7.5c0.4-6.9,0.6-13.3,0.6-19.2c0-30.2-4.9-47-11.6-57c-3.3-5-7.2-8.2-10.8-10
			c-3.4-1.7-6.4-2.1-8.2-2.1c-0.2,0-0.3,0-0.5,0h-39.4c-0.2,0-0.3,0-0.5,0c-1.8,0-4.8,0.4-8.2,2.1c-5.4,2.7-11.3,8.5-15.4,18.9
			c-4.2,10.4-6.9,25.4-7,48.1c0,5.9,0.2,12.2,0.6,19.2c0.3,4.3,3.8,7.5,8.1,7.5c0.2,0,0.3,0,0.5,0c4.5-0.3,7.9-4.1,7.6-8.5
			c-0.4-6.7-0.6-12.7-0.6-18.3c0-24.3,3.5-37.9,7-45v150c0,5.8,3.8,11.1,9.5,12.4c8.2,1.9,15.5-4.2,15.5-12V747h5v90.1
			c0,5.8,3.8,11.1,9.5,12.4c8.2,1.9,15.5-4.2,15.5-12V687.2c0.6,1.2,1.2,2.6,1.8,4.2c2.8,7.8,5.2,20.7,5.2,40.7
			c0,5.5-0.2,11.6-0.6,18.3c-0.3,4.4,3.1,8.2,7.6,8.5C806.2,758.9,806.4,758.9,806.5,758.9z"/>
		<circle class="st0" cx="764.6" cy="635.3" r="22.5"/>
	</g>
</g>
<g>
	<g>
		<path class="st0" d="M934.5,758.9c4.3,0,7.8-3.3,8.1-7.5c0.4-6.9,0.6-13.3,0.6-19.2c0-30.2-4.9-47-11.6-57c-3.3-5-7.2-8.2-10.8-10
			c-3.4-1.7-6.4-2.1-8.2-2.1c-0.2,0-0.3,0-0.5,0h-39.4c-0.2,0-0.3,0-0.5,0c-1.8,0-4.8,0.4-8.2,2.1c-5.4,2.7-11.3,8.5-15.4,18.9
			c-4.2,10.4-6.9,25.4-7,48.1c0,5.9,0.2,12.2,0.6,19.2c0.3,4.3,3.8,7.5,8.1,7.5c0.2,0,0.3,0,0.5,0c4.5-0.3,7.9-4.1,7.6-8.5
			c-0.4-6.7-0.6-12.7-0.6-18.3c0-24.3,3.5-37.9,7-45v150c0,5.8,3.8,11.1,9.5,12.4c8.2,1.9,15.5-4.2,15.5-12V747h5v90.1
			c0,5.8,3.8,11.1,9.5,12.4c8.2,1.9,15.5-4.2,15.5-12V687.2c0.6,1.2,1.2,2.6,1.8,4.2c2.8,7.8,5.2,20.7,5.2,40.7
			c0,5.5-0.2,11.6-0.6,18.3c-0.3,4.4,3.1,8.2,7.6,8.5C934.2,758.9,934.4,758.9,934.5,758.9z"/>
		<circle class="st0" cx="892.6" cy="635.3" r="22.5"/>
	</g>
</g>
<g>
	<g>
		<path class="st0" d="M1067.5,758.9c4.3,0,7.8-3.3,8.1-7.5c0.4-6.9,0.6-13.3,0.6-19.2c0-30.2-4.9-47-11.6-57
			c-3.3-5-7.2-8.2-10.8-10c-3.4-1.7-6.4-2.1-8.2-2.1c-0.2,0-0.3,0-0.5,0h-39.4c-0.2,0-0.3,0-0.5,0c-1.8,0-4.8,0.4-8.2,2.1
			c-5.4,2.7-11.3,8.5-15.4,18.9c-4.2,10.4-6.9,25.4-7,48.1c0,5.9,0.2,12.2,0.6,19.2c0.3,4.3,3.8,7.5,8.1,7.5c0.2,0,0.3,0,0.5,0
			c4.5-0.3,7.9-4.1,7.6-8.5c-0.4-6.7-0.6-12.7-0.6-18.3c0-24.3,3.5-37.9,7-45v150c0,5.8,3.8,11.1,9.5,12.4c8.2,1.9,15.5-4.2,15.5-12
			V747h5v90.1c0,5.8,3.8,11.1,9.5,12.4c8.2,1.9,15.5-4.2,15.5-12V687.2c0.6,1.2,1.2,2.6,1.8,4.2c2.8,7.8,5.2,20.7,5.2,40.7
			c0,5.5-0.2,11.6-0.6,18.3c-0.3,4.4,3.1,8.2,7.6,8.5C1067.2,758.9,1067.4,758.9,1067.5,758.9z"/>
		<circle class="st0" cx="1025.6" cy="635.3" r="22.5"/>
	</g>
</g>
<g>
	<g>
		<path class="st0" d="M1200.5,756.9c4.3,0,7.8-3.3,8.1-7.5c0.4-6.9,0.6-13.3,0.6-19.2c0-30.2-4.9-47-11.6-57c-3.3-5-7.2-6.2-10.8-8
			c-3.4-1.7-6.4-2.1-8.2-2.1c-0.2,0-0.3,0-0.5,0h-39.4c-0.2,0-0.3,0-0.5,0c-1.8,0-4.8,0.4-8.2,2.1c-5.4,2.7-11.3,6.5-15.4,16.9
			c-4.2,10.4-6.9,25.4-7,48.1c0,5.9,0.2,12.2,0.6,19.2c0.3,4.3,3.8,7.5,8.1,7.5c0.2,0,0.3,0,0.5,0c4.5-0.3,7.9-2.1,7.6-6.5
			c-0.4-6.7-0.6-12.7-0.6-18.3c0-24.3,3.5-37.9,7-45v150c0,5.8,3.8,11.1,9.5,12.4c8.2,1.9,15.5-4.2,15.5-12V747h5v90.1
			c0,5.8,3.8,11.1,9.5,12.4c8.2,1.9,15.5-4.2,15.5-12V687.2c0.6,1.2,1.2,2.6,1.8,4.2c2.8,7.8,5.2,20.7,5.2,40.7
			c0,5.5-0.2,11.6-0.6,18.3c-0.3,4.4,3.1,6.2,7.6,6.5C1200.2,756.9,1200.4,756.9,1200.5,756.9z"/>
		<circle class="st0" cx="1158.6" cy="635.3" r="22.5"/>
	</g>
</g>
<g>
	<g>
		<path class="st0" d="M1333.5,758.9c4.3,0,7.8-3.3,8.1-7.5c0.4-6.9,0.6-13.3,0.6-19.2c0-30.2-4.9-47-11.6-57
			c-3.3-5-7.2-8.2-10.8-10c-3.4-1.7-6.4-2.1-8.2-2.1c-0.2,0-0.3,0-0.5,0h-39.4c-0.2,0-0.3,0-0.5,0c-1.8,0-4.8,0.4-8.2,2.1
			c-5.4,2.7-11.3,8.5-15.4,18.9c-4.2,10.4-6.9,25.4-7,48.1c0,5.9,0.2,12.2,0.6,19.2c0.3,4.3,3.8,7.5,8.1,7.5c0.2,0,0.3,0,0.5,0
			c4.5-0.3,7.9-4.1,7.6-8.5c-0.4-6.7-0.6-12.7-0.6-18.3c0-24.3,3.5-37.9,7-45v150c0,5.8,3.8,11.1,9.5,12.4c8.2,1.9,15.5-4.2,15.5-12
			V747h5v90.1c0,5.8,3.8,11.1,9.5,12.4c8.2,1.9,15.5-4.2,15.5-12V687.2c0.6,1.2,1.2,2.6,1.8,4.2c2.8,7.8,5.2,20.7,5.2,40.7
			c0,5.5-0.2,11.6-0.6,18.3c-0.3,4.4,3.1,8.2,7.6,8.5C1333.2,758.9,1333.4,758.9,1333.5,758.9z"/>
		<circle class="st0" cx="1291.6" cy="635.3" r="22.5"/>
	</g>
</g>
<g>
	<g>
		<path class="st0" d="M1466.5,758.9c4.3,0,7.8-3.3,8.1-7.5c0.4-6.9,0.6-13.3,0.6-19.2c0-30.2-4.9-47-11.6-57
			c-3.3-5-7.2-8.2-10.8-10c-3.4-1.7-6.4-2.1-8.2-2.1c-0.2,0-0.3,0-0.5,0h-39.4c-0.2,0-0.3,0-0.5,0c-1.8,0-4.8,0.4-8.2,2.1
			c-5.4,2.7-11.3,8.5-15.4,18.9c-4.2,10.4-6.9,25.4-7,48.1c0,5.9,0.2,12.2,0.6,19.2c0.3,4.3,3.8,7.5,8.1,7.5c0.2,0,0.3,0,0.5,0
			c4.5-0.3,7.9-4.1,7.6-8.5c-0.4-6.7-0.6-12.7-0.6-18.3c0-24.3,3.5-37.9,7-45v150c0,5.8,3.8,11.1,9.5,12.4c8.2,1.9,15.5-4.2,15.5-12
			V747h5v90.1c0,5.8,3.8,11.1,9.5,12.4c8.2,1.9,15.5-4.2,15.5-12V687.2c0.6,1.2,1.2,2.6,1.8,4.2c2.8,7.8,5.2,20.7,5.2,40.7
			c0,5.5-0.2,11.6-0.6,18.3c-0.3,4.4,3.1,8.2,7.6,8.5C1466.2,758.9,1466.4,758.9,1466.5,758.9z"/>
		<circle class="st0" cx="1424.6" cy="635.3" r="22.5"/>
	</g>
</g>
<g>
	<g>
		<path class="st0" d="M275.5,1033.9c4.3,0,7.8-3.3,8.1-7.5c0.4-6.9,0.6-13.3,0.6-19.2c0-30.2-4.9-47-11.6-57
			c-3.3-5-7.2-8.2-10.8-10c-3.4-1.7-6.4-2.1-8.2-2.1c-0.2,0-0.3,0-0.5,0h-39.4c-0.2,0-0.3,0-0.5,0c-1.8,0-4.8,0.4-8.2,2.1
			c-5.4,2.7-11.3,8.5-15.4,18.9c-4.2,10.4-6.9,25.4-7,48.1c0,5.9,0.2,12.2,0.6,19.2c0.3,4.3,3.8,7.5,8.1,7.5c0.2,0,0.3,0,0.5,0
			c4.5-0.3,7.9-4.1,7.6-8.5c-0.4-6.7-0.6-12.7-0.6-18.3c0-24.3,3.5-37.9,7-45v150c0,5.8,3.8,11.1,9.5,12.4c8.2,1.9,15.5-4.2,15.5-12
			V1022h5v90.1c0,5.8,3.8,11.1,9.5,12.4c8.2,1.9,15.5-4.2,15.5-12V962.2c0.6,1.2,1.2,2.6,1.8,4.2c2.8,7.8,5.2,20.7,5.2,40.7
			c0,5.5-0.2,11.6-0.6,18.3c-0.3,4.4,3.1,8.2,7.6,8.5C275.2,1033.9,275.4,1033.9,275.5,1033.9z"/>
		<circle class="st0" cx="233.6" cy="910.3" r="22.5"/>
	</g>
</g>
<g>
	<g>
		<path class="st0" d="M408.5,1033.9c4.3,0,7.8-3.3,8.1-7.5c0.4-6.9,0.6-13.3,0.6-19.2c0-30.2-4.9-47-11.6-57
			c-3.3-5-7.2-8.2-10.8-10c-3.4-1.7-6.4-2.1-8.2-2.1c-0.2,0-0.3,0-0.5,0h-39.4c-0.2,0-0.3,0-0.5,0c-1.8,0-4.8,0.4-8.2,2.1
			c-5.4,2.7-11.3,8.5-15.4,18.9c-4.2,10.4-6.9,25.4-7,48.1c0,5.9,0.2,12.2,0.6,19.2c0.3,4.3,3.8,7.5,8.1,7.5c0.2,0,0.3,0,0.5,0
			c4.5-0.3,7.9-4.1,7.6-8.5c-0.4-6.7-0.6-12.7-0.6-18.3c0-24.3,3.5-37.9,7-45v150c0,5.8,3.8,11.1,9.5,12.4c8.2,1.9,15.5-4.2,15.5-12
			V1022h5v90.1c0,5.8,3.8,11.1,9.5,12.4c8.2,1.9,15.5-4.2,15.5-12V962.2c0.6,1.2,1.2,2.6,1.8,4.2c2.8,7.8,5.2,20.7,5.2,40.7
			c0,5.5-0.2,11.6-0.6,18.3c-0.3,4.4,3.1,8.2,7.6,8.5C408.2,1033.9,408.4,1033.9,408.5,1033.9z"/>
		<circle class="st0" cx="366.6" cy="910.3" r="22.5"/>
	</g>
</g>
<g>
	<g>
		<path class="st0" d="M541.5,1031.9c4.3,0,7.8-3.3,8.1-7.5c0.4-6.9,0.6-13.3,0.6-19.2c0-30.2-4.9-47-11.6-57c-3.3-5-7.2-6.2-10.8-8
			c-3.4-1.7-6.4-2.1-8.2-2.1c-0.2,0-0.3,0-0.5,0h-39.4c-0.2,0-0.3,0-0.5,0c-1.8,0-4.8,0.4-8.2,2.1c-5.4,2.7-11.3,6.5-15.4,16.9
			c-4.2,10.4-6.9,25.4-7,48.1c0,5.9,0.2,12.2,0.6,19.2c0.3,4.3,3.8,7.5,8.1,7.5c0.2,0,0.3,0,0.5,0c4.5-0.3,7.9-2.1,7.6-6.5
			c-0.4-6.7-0.6-12.7-0.6-18.3c0-24.3,3.5-37.9,7-45v150c0,5.8,3.8,11.1,9.5,12.4c8.2,1.9,15.5-4.2,15.5-12V1022h5v90.1
			c0,5.8,3.8,11.1,9.5,12.4c8.2,1.9,15.5-4.2,15.5-12V962.2c0.6,1.2,1.2,2.6,1.8,4.2c2.8,7.8,5.2,20.7,5.2,40.7
			c0,5.5-0.2,11.6-0.6,18.3c-0.3,4.4,3.1,6.2,7.6,6.5C541.2,1031.9,541.4,1031.9,541.5,1031.9z"/>
		<circle class="st0" cx="499.6" cy="910.3" r="22.5"/>
	</g>
</g>
<g>
	<g>
		<path class="st0" d="M674.5,1033.9c4.3,0,7.8-3.3,8.1-7.5c0.4-6.9,0.6-13.3,0.6-19.2c0-30.2-4.9-47-11.6-57
			c-3.3-5-7.2-8.2-10.8-10c-3.4-1.7-6.4-2.1-8.2-2.1c-0.2,0-0.3,0-0.5,0h-39.4c-0.2,0-0.3,0-0.5,0c-1.8,0-4.8,0.4-8.2,2.1
			c-5.4,2.7-11.3,8.5-15.4,18.9c-4.2,10.4-6.9,25.4-7,48.1c0,5.9,0.2,12.2,0.6,19.2c0.3,4.3,3.8,7.5,8.1,7.5c0.2,0,0.3,0,0.5,0
			c4.5-0.3,7.9-4.1,7.6-8.5c-0.4-6.7-0.6-12.7-0.6-18.3c0-24.3,3.5-37.9,7-45v150c0,5.8,3.8,11.1,9.5,12.4c8.2,1.9,15.5-4.2,15.5-12
			V1022h5v90.1c0,5.8,3.8,11.1,9.5,12.4c8.2,1.9,15.5-4.2,15.5-12V962.2c0.6,1.2,1.2,2.6,1.8,4.2c2.8,7.8,5.2,20.7,5.2,40.7
			c0,5.5-0.2,11.6-0.6,18.3c-0.3,4.4,3.1,8.2,7.6,8.5C674.2,1033.9,674.4,1033.9,674.5,1033.9z"/>
		<circle class="st0" cx="632.6" cy="910.3" r="22.5"/>
	</g>
</g>
<g>
	<g>
		<path class="st0" d="M807.5,1033.9c4.3,0,7.8-3.3,8.1-7.5c0.4-6.9,0.6-13.3,0.6-19.2c0-30.2-4.9-47-11.6-57
			c-3.3-5-7.2-8.2-10.8-10c-3.4-1.7-6.4-2.1-8.2-2.1c-0.2,0-0.3,0-0.5,0h-39.4c-0.2,0-0.3,0-0.5,0c-1.8,0-4.8,0.4-8.2,2.1
			c-5.4,2.7-11.3,8.5-15.4,18.9c-4.2,10.4-6.9,25.4-7,48.1c0,5.9,0.2,12.2,0.6,19.2c0.3,4.3,3.8,7.5,8.1,7.5c0.2,0,0.3,0,0.5,0
			c4.5-0.3,7.9-4.1,7.6-8.5c-0.4-6.7-0.6-12.7-0.6-18.3c0-24.3,3.5-37.9,7-45v150c0,5.8,3.8,11.1,9.5,12.4c8.2,1.9,15.5-4.2,15.5-12
			V1022h5v90.1c0,5.8,3.8,11.1,9.5,12.4c8.2,1.9,15.5-4.2,15.5-12V962.2c0.6,1.2,1.2,2.6,1.8,4.2c2.8,7.8,5.2,20.7,5.2,40.7
			c0,5.5-0.2,11.6-0.6,18.3c-0.3,4.4,3.1,8.2,7.6,8.5C807.2,1033.9,807.4,1033.9,807.5,1033.9z"/>
		<circle class="st0" cx="765.6" cy="910.3" r="22.5"/>
	</g>
</g>
<g>
	<g>
		<path class="st0" d="M935.5,1033.9c4.3,0,7.8-3.3,8.1-7.5c0.4-6.9,0.6-13.3,0.6-19.2c0-30.2-4.9-47-11.6-57
			c-3.3-5-7.2-8.2-10.8-10c-3.4-1.7-6.4-2.1-8.2-2.1c-0.2,0-0.3,0-0.5,0h-39.4c-0.2,0-0.3,0-0.5,0c-1.8,0-4.8,0.4-8.2,2.1
			c-5.4,2.7-11.3,8.5-15.4,18.9c-4.2,10.4-6.9,25.4-7,48.1c0,5.9,0.2,12.2,0.6,19.2c0.3,4.3,3.8,7.5,8.1,7.5c0.2,0,0.3,0,0.5,0
			c4.5-0.3,7.9-4.1,7.6-8.5c-0.4-6.7-0.6-12.7-0.6-18.3c0-24.3,3.5-37.9,7-45v150c0,5.8,3.8,11.1,9.5,12.4c8.2,1.9,15.5-4.2,15.5-12
			V1022h5v90.1c0,5.8,3.8,11.1,9.5,12.4c8.2,1.9,15.5-4.2,15.5-12V962.2c0.6,1.2,1.2,2.6,1.8,4.2c2.8,7.8,5.2,20.7,5.2,40.7
			c0,5.5-0.2,11.6-0.6,18.3c-0.3,4.4,3.1,8.2,7.6,8.5C935.2,1033.9,935.4,1033.9,935.5,1033.9z"/>
		<circle class="st0" cx="893.6" cy="910.3" r="22.5"/>
	</g>
</g>
<g>
	<g>
		<path class="st0" d="M1068.5,1033.9c4.3,0,7.8-3.3,8.1-7.5c0.4-6.9,0.6-13.3,0.6-19.2c0-30.2-4.9-47-11.6-57
			c-3.3-5-7.2-8.2-10.8-10c-3.4-1.7-6.4-2.1-8.2-2.1c-0.2,0-0.3,0-0.5,0h-39.4c-0.2,0-0.3,0-0.5,0c-1.8,0-4.8,0.4-8.2,2.1
			c-5.4,2.7-11.3,8.5-15.4,18.9c-4.2,10.4-6.9,25.4-7,48.1c0,5.9,0.2,12.2,0.6,19.2c0.3,4.3,3.8,7.5,8.1,7.5c0.2,0,0.3,0,0.5,0
			c4.5-0.3,7.9-4.1,7.6-8.5c-0.4-6.7-0.6-12.7-0.6-18.3c0-24.3,3.5-37.9,7-45v150c0,5.8,3.8,11.1,9.5,12.4c8.2,1.9,15.5-4.2,15.5-12
			V1022h5v90.1c0,5.8,3.8,11.1,9.5,12.4c8.2,1.9,15.5-4.2,15.5-12V962.2c0.6,1.2,1.2,2.6,1.8,4.2c2.8,7.8,5.2,20.7,5.2,40.7
			c0,5.5-0.2,11.6-0.6,18.3c-0.3,4.4,3.1,8.2,7.6,8.5C1068.2,1033.9,1068.4,1033.9,1068.5,1033.9z"/>
		<circle class="st0" cx="1026.6" cy="910.3" r="22.5"/>
	</g>
</g>
<g>
	<g>
		<path class="st0" d="M1201.5,1031.9c4.3,0,7.8-3.3,8.1-7.5c0.4-6.9,0.6-13.3,0.6-19.2c0-30.2-4.9-47-11.6-57
			c-3.3-5-7.2-6.2-10.8-8c-3.4-1.7-6.4-2.1-8.2-2.1c-0.2,0-0.3,0-0.5,0h-39.4c-0.2,0-0.3,0-0.5,0c-1.8,0-4.8,0.4-8.2,2.1
			c-5.4,2.7-11.3,6.5-15.4,16.9c-4.2,10.4-6.9,25.4-7,48.1c0,5.9,0.2,12.2,0.6,19.2c0.3,4.3,3.8,7.5,8.1,7.5c0.2,0,0.3,0,0.5,0
			c4.5-0.3,7.9-2.1,7.6-6.5c-0.4-6.7-0.6-12.7-0.6-18.3c0-24.3,3.5-37.9,7-45v150c0,5.8,3.8,11.1,9.5,12.4c8.2,1.9,15.5-4.2,15.5-12
			V1022h5v90.1c0,5.8,3.8,11.1,9.5,12.4c8.2,1.9,15.5-4.2,15.5-12V962.2c0.6,1.2,1.2,2.6,1.8,4.2c2.8,7.8,5.2,20.7,5.2,40.7
			c0,5.5-0.2,11.6-0.6,18.3c-0.3,4.4,3.1,6.2,7.6,6.5C1201.2,1031.9,1201.4,1031.9,1201.5,1031.9z"/>
		<circle class="st0" cx="1159.6" cy="910.3" r="22.5"/>
	</g>
</g>
<g>
	<g>
		<path class="st0" d="M1334.5,1033.9c4.3,0,7.8-3.3,8.1-7.5c0.4-6.9,0.6-13.3,0.6-19.2c0-30.2-4.9-47-11.6-57
			c-3.3-5-7.2-8.2-10.8-10c-3.4-1.7-6.4-2.1-8.2-2.1c-0.2,0-0.3,0-0.5,0h-39.4c-0.2,0-0.3,0-0.5,0c-1.8,0-4.8,0.4-8.2,2.1
			c-5.4,2.7-11.3,8.5-15.4,18.9c-4.2,10.4-6.9,25.4-7,48.1c0,5.9,0.2,12.2,0.6,19.2c0.3,4.3,3.8,7.5,8.1,7.5c0.2,0,0.3,0,0.5,0
			c4.5-0.3,7.9-4.1,7.6-8.5c-0.4-6.7-0.6-12.7-0.6-18.3c0-24.3,3.5-37.9,7-45v150c0,5.8,3.8,11.1,9.5,12.4c8.2,1.9,15.5-4.2,15.5-12
			V1022h5v90.1c0,5.8,3.8,11.1,9.5,12.4c8.2,1.9,15.5-4.2,15.5-12V962.2c0.6,1.2,1.2,2.6,1.8,4.2c2.8,7.8,5.2,20.7,5.2,40.7
			c0,5.5-0.2,11.6-0.6,18.3c-0.3,4.4,3.1,8.2,7.6,8.5C1334.2,1033.9,1334.4,1033.9,1334.5,1033.9z"/>
		<circle class="st0" cx="1292.6" cy="910.3" r="22.5"/>
	</g>
</g>
<g>
	<g>
		<path class="st0" d="M1467.5,1033.9c4.3,0,7.8-3.3,8.1-7.5c0.4-6.9,0.6-13.3,0.6-19.2c0-30.2-4.9-47-11.6-57
			c-3.3-5-7.2-8.2-10.8-10c-3.4-1.7-6.4-2.1-8.2-2.1c-0.2,0-0.3,0-0.5,0h-39.4c-0.2,0-0.3,0-0.5,0c-1.8,0-4.8,0.4-8.2,2.1
			c-5.4,2.7-11.3,8.5-15.4,18.9c-4.2,10.4-6.9,25.4-7,48.1c0,5.9,0.2,12.2,0.6,19.2c0.3,4.3,3.8,7.5,8.1,7.5c0.2,0,0.3,0,0.5,0
			c4.5-0.3,7.9-4.1,7.6-8.5c-0.4-6.7-0.6-12.7-0.6-18.3c0-24.3,3.5-37.9,7-45v150c0,5.8,3.8,11.1,9.5,12.4c8.2,1.9,15.5-4.2,15.5-12
			V1022h5v90.1c0,5.8,3.8,11.1,9.5,12.4c8.2,1.9,15.5-4.2,15.5-12V962.2c0.6,1.2,1.2,2.6,1.8,4.2c2.8,7.8,5.2,20.7,5.2,40.7
			c0,5.5-0.2,11.6-0.6,18.3c-0.3,4.4,3.1,8.2,7.6,8.5C1467.2,1033.9,1467.4,1033.9,1467.5,1033.9z"/>
		<circle class="st0" cx="1425.6" cy="910.3" r="22.5"/>
	</g>
</g>
<rect x="319" y="261" class="st1" width="1137.8" height="61"/>
<text transform="matrix(1 0 0 1 573.9463 301.7227)" class="st2 st3">62%</text>
<text transform="matrix(1 0 0 1 667.4463 301.7227)" class="st4 st3"> of Cambodian adults have PTSD.</text>
<g>
	<g>
		<path class="st0" d="M274.5,1295.9c4.3,0,7.8-3.3,8.1-7.5c0.4-6.9,0.6-13.3,0.6-19.2c0-30.2-4.9-47-11.6-57
			c-3.3-5-7.2-8.2-10.8-10c-3.4-1.7-6.4-2.1-8.2-2.1c-0.2,0-0.3,0-0.5,0h-39.4c-0.2,0-0.3,0-0.5,0c-1.8,0-4.8,0.4-8.2,2.1
			c-5.4,2.7-11.3,8.5-15.4,18.9c-4.2,10.4-6.9,25.4-7,48.1c0,5.9,0.2,12.2,0.6,19.2c0.3,4.3,3.8,7.5,8.1,7.5c0.2,0,0.3,0,0.5,0
			c4.5-0.3,7.9-4.1,7.6-8.5c-0.4-6.7-0.6-12.7-0.6-18.3c0-24.3,3.5-37.9,7-45v150c0,5.8,3.8,11.1,9.5,12.4c8.2,1.9,15.5-4.2,15.5-12
			V1284h5v90.1c0,5.8,3.8,11.1,9.5,12.4c8.2,1.9,15.5-4.2,15.5-12v-150.2c0.6,1.2,1.2,2.6,1.8,4.2c2.8,7.8,5.2,20.7,5.2,40.7
			c0,5.5-0.2,11.6-0.6,18.3c-0.3,4.4,3.1,8.2,7.6,8.5C274.2,1295.9,274.4,1295.9,274.5,1295.9z"/>
		<circle class="st0" cx="232.6" cy="1172.3" r="22.5"/>
	</g>
</g>
<g>
	<g>
		<path d="M407.5,1295.9c4.3,0,7.8-3.3,8.1-7.5c0.4-6.9,0.6-13.3,0.6-19.2c0-30.2-4.9-47-11.6-57c-3.3-5-7.2-8.2-10.8-10
			c-3.4-1.7-6.4-2.1-8.2-2.1c-0.2,0-0.3,0-0.5,0h-39.4c-0.2,0-0.3,0-0.5,0c-1.8,0-4.8,0.4-8.2,2.1c-5.4,2.7-11.3,8.5-15.4,18.9
			c-4.2,10.4-6.9,25.4-7,48.1c0,5.9,0.2,12.2,0.6,19.2c0.3,4.3,3.8,7.5,8.1,7.5c0.2,0,0.3,0,0.5,0c4.5-0.3,7.9-4.1,7.6-8.5
			c-0.4-6.7-0.6-12.7-0.6-18.3c0-24.3,3.5-37.9,7-45v150c0,5.8,3.8,11.1,9.5,12.4c8.2,1.9,15.5-4.2,15.5-12V1284h5v90.1
			c0,5.8,3.8,11.1,9.5,12.4c8.2,1.9,15.5-4.2,15.5-12v-150.2c0.6,1.2,1.2,2.6,1.8,4.2c2.8,7.8,5.2,20.7,5.2,40.7
			c0,5.5-0.2,11.6-0.6,18.3c-0.3,4.4,3.1,8.2,7.6,8.5C407.2,1295.9,407.4,1295.9,407.5,1295.9z"/>
		<circle cx="365.6" cy="1172.3" r="22.5"/>
	</g>
</g>
<g>
	<g>
		<path d="M540.5,1293.9c4.3,0,7.8-3.3,8.1-7.5c0.4-6.9,0.6-13.3,0.6-19.2c0-30.2-4.9-47-11.6-57c-3.3-5-7.2-6.2-10.8-8
			c-3.4-1.7-6.4-2.1-8.2-2.1c-0.2,0-0.3,0-0.5,0h-39.4c-0.2,0-0.3,0-0.5,0c-1.8,0-4.8,0.4-8.2,2.1c-5.4,2.7-11.3,6.5-15.4,16.9
			c-4.2,10.4-6.9,25.4-7,48.1c0,5.9,0.2,12.2,0.6,19.2c0.3,4.3,3.8,7.5,8.1,7.5c0.2,0,0.3,0,0.5,0c4.5-0.3,7.9-2.1,7.6-6.5
			c-0.4-6.7-0.6-12.7-0.6-18.3c0-24.3,3.5-37.9,7-45v150c0,5.8,3.8,11.1,9.5,12.4c8.2,1.9,15.5-4.2,15.5-12V1284h5v90.1
			c0,5.8,3.8,11.1,9.5,12.4c8.2,1.9,15.5-4.2,15.5-12v-150.2c0.6,1.2,1.2,2.6,1.8,4.2c2.8,7.8,5.2,20.7,5.2,40.7
			c0,5.5-0.2,11.6-0.6,18.3c-0.3,4.4,3.1,6.2,7.6,6.5C540.2,1293.9,540.4,1293.9,540.5,1293.9z"/>
		<circle cx="498.6" cy="1172.3" r="22.5"/>
	</g>
</g>
<g>
	<g>
		<path d="M673.5,1295.9c4.3,0,7.8-3.3,8.1-7.5c0.4-6.9,0.6-13.3,0.6-19.2c0-30.2-4.9-47-11.6-57c-3.3-5-7.2-8.2-10.8-10
			c-3.4-1.7-6.4-2.1-8.2-2.1c-0.2,0-0.3,0-0.5,0h-39.4c-0.2,0-0.3,0-0.5,0c-1.8,0-4.8,0.4-8.2,2.1c-5.4,2.7-11.3,8.5-15.4,18.9
			c-4.2,10.4-6.9,25.4-7,48.1c0,5.9,0.2,12.2,0.6,19.2c0.3,4.3,3.8,7.5,8.1,7.5c0.2,0,0.3,0,0.5,0c4.5-0.3,7.9-4.1,7.6-8.5
			c-0.4-6.7-0.6-12.7-0.6-18.3c0-24.3,3.5-37.9,7-45v150c0,5.8,3.8,11.1,9.5,12.4c8.2,1.9,15.5-4.2,15.5-12V1284h5v90.1
			c0,5.8,3.8,11.1,9.5,12.4c8.2,1.9,15.5-4.2,15.5-12v-150.2c0.6,1.2,1.2,2.6,1.8,4.2c2.8,7.8,5.2,20.7,5.2,40.7
			c0,5.5-0.2,11.6-0.6,18.3c-0.3,4.4,3.1,8.2,7.6,8.5C673.2,1295.9,673.4,1295.9,673.5,1295.9z"/>
		<circle cx="631.6" cy="1172.3" r="22.5"/>
	</g>
</g>
<g>
	<g>
		<path d="M806.5,1295.9c4.3,0,7.8-3.3,8.1-7.5c0.4-6.9,0.6-13.3,0.6-19.2c0-30.2-4.9-47-11.6-57c-3.3-5-7.2-8.2-10.8-10
			c-3.4-1.7-6.4-2.1-8.2-2.1c-0.2,0-0.3,0-0.5,0h-39.4c-0.2,0-0.3,0-0.5,0c-1.8,0-4.8,0.4-8.2,2.1c-5.4,2.7-11.3,8.5-15.4,18.9
			c-4.2,10.4-6.9,25.4-7,48.1c0,5.9,0.2,12.2,0.6,19.2c0.3,4.3,3.8,7.5,8.1,7.5c0.2,0,0.3,0,0.5,0c4.5-0.3,7.9-4.1,7.6-8.5
			c-0.4-6.7-0.6-12.7-0.6-18.3c0-24.3,3.5-37.9,7-45v150c0,5.8,3.8,11.1,9.5,12.4c8.2,1.9,15.5-4.2,15.5-12V1284h5v90.1
			c0,5.8,3.8,11.1,9.5,12.4c8.2,1.9,15.5-4.2,15.5-12v-150.2c0.6,1.2,1.2,2.6,1.8,4.2c2.8,7.8,5.2,20.7,5.2,40.7
			c0,5.5-0.2,11.6-0.6,18.3c-0.3,4.4,3.1,8.2,7.6,8.5C806.2,1295.9,806.4,1295.9,806.5,1295.9z"/>
		<circle cx="764.6" cy="1172.3" r="22.5"/>
	</g>
</g>
<g>
	<g>
		<path d="M934.5,1295.9c4.3,0,7.8-3.3,8.1-7.5c0.4-6.9,0.6-13.3,0.6-19.2c0-30.2-4.9-47-11.6-57c-3.3-5-7.2-8.2-10.8-10
			c-3.4-1.7-6.4-2.1-8.2-2.1c-0.2,0-0.3,0-0.5,0h-39.4c-0.2,0-0.3,0-0.5,0c-1.8,0-4.8,0.4-8.2,2.1c-5.4,2.7-11.3,8.5-15.4,18.9
			c-4.2,10.4-6.9,25.4-7,48.1c0,5.9,0.2,12.2,0.6,19.2c0.3,4.3,3.8,7.5,8.1,7.5c0.2,0,0.3,0,0.5,0c4.5-0.3,7.9-4.1,7.6-8.5
			c-0.4-6.7-0.6-12.7-0.6-18.3c0-24.3,3.5-37.9,7-45v150c0,5.8,3.8,11.1,9.5,12.4c8.2,1.9,15.5-4.2,15.5-12V1284h5v90.1
			c0,5.8,3.8,11.1,9.5,12.4c8.2,1.9,15.5-4.2,15.5-12v-150.2c0.6,1.2,1.2,2.6,1.8,4.2c2.8,7.8,5.2,20.7,5.2,40.7
			c0,5.5-0.2,11.6-0.6,18.3c-0.3,4.4,3.1,8.2,7.6,8.5C934.2,1295.9,934.4,1295.9,934.5,1295.9z"/>
		<circle cx="892.6" cy="1172.3" r="22.5"/>
	</g>
</g>
<g>
	<g>
		<path d="M1067.5,1295.9c4.3,0,7.8-3.3,8.1-7.5c0.4-6.9,0.6-13.3,0.6-19.2c0-30.2-4.9-47-11.6-57c-3.3-5-7.2-8.2-10.8-10
			c-3.4-1.7-6.4-2.1-8.2-2.1c-0.2,0-0.3,0-0.5,0h-39.4c-0.2,0-0.3,0-0.5,0c-1.8,0-4.8,0.4-8.2,2.1c-5.4,2.7-11.3,8.5-15.4,18.9
			c-4.2,10.4-6.9,25.4-7,48.1c0,5.9,0.2,12.2,0.6,19.2c0.3,4.3,3.8,7.5,8.1,7.5c0.2,0,0.3,0,0.5,0c4.5-0.3,7.9-4.1,7.6-8.5
			c-0.4-6.7-0.6-12.7-0.6-18.3c0-24.3,3.5-37.9,7-45v150c0,5.8,3.8,11.1,9.5,12.4c8.2,1.9,15.5-4.2,15.5-12V1284h5v90.1
			c0,5.8,3.8,11.1,9.5,12.4c8.2,1.9,15.5-4.2,15.5-12v-150.2c0.6,1.2,1.2,2.6,1.8,4.2c2.8,7.8,5.2,20.7,5.2,40.7
			c0,5.5-0.2,11.6-0.6,18.3c-0.3,4.4,3.1,8.2,7.6,8.5C1067.2,1295.9,1067.4,1295.9,1067.5,1295.9z"/>
		<circle cx="1025.6" cy="1172.3" r="22.5"/>
	</g>
</g>
<g>
	<g>
		<path d="M1200.5,1293.9c4.3,0,7.8-3.3,8.1-7.5c0.4-6.9,0.6-13.3,0.6-19.2c0-30.2-4.9-47-11.6-57c-3.3-5-7.2-6.2-10.8-8
			c-3.4-1.7-6.4-2.1-8.2-2.1c-0.2,0-0.3,0-0.5,0h-39.4c-0.2,0-0.3,0-0.5,0c-1.8,0-4.8,0.4-8.2,2.1c-5.4,2.7-11.3,6.5-15.4,16.9
			c-4.2,10.4-6.9,25.4-7,48.1c0,5.9,0.2,12.2,0.6,19.2c0.3,4.3,3.8,7.5,8.1,7.5c0.2,0,0.3,0,0.5,0c4.5-0.3,7.9-2.1,7.6-6.5
			c-0.4-6.7-0.6-12.7-0.6-18.3c0-24.3,3.5-37.9,7-45v150c0,5.8,3.8,11.1,9.5,12.4c8.2,1.9,15.5-4.2,15.5-12V1284h5v90.1
			c0,5.8,3.8,11.1,9.5,12.4c8.2,1.9,15.5-4.2,15.5-12v-150.2c0.6,1.2,1.2,2.6,1.8,4.2c2.8,7.8,5.2,20.7,5.2,40.7
			c0,5.5-0.2,11.6-0.6,18.3c-0.3,4.4,3.1,6.2,7.6,6.5C1200.2,1293.9,1200.4,1293.9,1200.5,1293.9z"/>
		<circle cx="1158.6" cy="1172.3" r="22.5"/>
	</g>
</g>
<g>
	<g>
		<path d="M1333.5,1295.9c4.3,0,7.8-3.3,8.1-7.5c0.4-6.9,0.6-13.3,0.6-19.2c0-30.2-4.9-47-11.6-57c-3.3-5-7.2-8.2-10.8-10
			c-3.4-1.7-6.4-2.1-8.2-2.1c-0.2,0-0.3,0-0.5,0h-39.4c-0.2,0-0.3,0-0.5,0c-1.8,0-4.8,0.4-8.2,2.1c-5.4,2.7-11.3,8.5-15.4,18.9
			c-4.2,10.4-6.9,25.4-7,48.1c0,5.9,0.2,12.2,0.6,19.2c0.3,4.3,3.8,7.5,8.1,7.5c0.2,0,0.3,0,0.5,0c4.5-0.3,7.9-4.1,7.6-8.5
			c-0.4-6.7-0.6-12.7-0.6-18.3c0-24.3,3.5-37.9,7-45v150c0,5.8,3.8,11.1,9.5,12.4c8.2,1.9,15.5-4.2,15.5-12V1284h5v90.1
			c0,5.8,3.8,11.1,9.5,12.4c8.2,1.9,15.5-4.2,15.5-12v-150.2c0.6,1.2,1.2,2.6,1.8,4.2c2.8,7.8,5.2,20.7,5.2,40.7
			c0,5.5-0.2,11.6-0.6,18.3c-0.3,4.4,3.1,8.2,7.6,8.5C1333.2,1295.9,1333.4,1295.9,1333.5,1295.9z"/>
		<circle cx="1291.6" cy="1172.3" r="22.5"/>
	</g>
</g>
<g>
	<g>
		<path d="M1466.5,1295.9c4.3,0,7.8-3.3,8.1-7.5c0.4-6.9,0.6-13.3,0.6-19.2c0-30.2-4.9-47-11.6-57c-3.3-5-7.2-8.2-10.8-10
			c-3.4-1.7-6.4-2.1-8.2-2.1c-0.2,0-0.3,0-0.5,0h-39.4c-0.2,0-0.3,0-0.5,0c-1.8,0-4.8,0.4-8.2,2.1c-5.4,2.7-11.3,8.5-15.4,18.9
			c-4.2,10.4-6.9,25.4-7,48.1c0,5.9,0.2,12.2,0.6,19.2c0.3,4.3,3.8,7.5,8.1,7.5c0.2,0,0.3,0,0.5,0c4.5-0.3,7.9-4.1,7.6-8.5
			c-0.4-6.7-0.6-12.7-0.6-18.3c0-24.3,3.5-37.9,7-45v150c0,5.8,3.8,11.1,9.5,12.4c8.2,1.9,15.5-4.2,15.5-12V1284h5v90.1
			c0,5.8,3.8,11.1,9.5,12.4c8.2,1.9,15.5-4.2,15.5-12v-150.2c0.6,1.2,1.2,2.6,1.8,4.2c2.8,7.8,5.2,20.7,5.2,40.7
			c0,5.5-0.2,11.6-0.6,18.3c-0.3,4.4,3.1,8.2,7.6,8.5C1466.2,1295.9,1466.4,1295.9,1466.5,1295.9z"/>
		<circle cx="1424.6" cy="1172.3" r="22.5"/>
	</g>
</g>
<g>
	<g>
		<path d="M272.5,1567.9c4.3,0,7.8-3.3,8.1-7.5c0.4-6.9,0.6-13.3,0.6-19.2c0-30.2-4.9-47-11.6-57c-3.3-5-7.2-8.2-10.8-10
			c-3.4-1.7-6.4-2.1-8.2-2.1c-0.2,0-0.3,0-0.5,0h-39.4c-0.2,0-0.3,0-0.5,0c-1.8,0-4.8,0.4-8.2,2.1c-5.4,2.7-11.3,8.5-15.4,18.9
			c-4.2,10.4-6.9,25.4-7,48.1c0,5.9,0.2,12.2,0.6,19.2c0.3,4.3,3.8,7.5,8.1,7.5c0.2,0,0.3,0,0.5,0c4.5-0.3,7.9-4.1,7.6-8.5
			c-0.4-6.7-0.6-12.7-0.6-18.3c0-24.3,3.5-37.9,7-45v150c0,5.8,3.8,11.1,9.5,12.4c8.2,1.9,15.5-4.2,15.5-12V1556h5v90.1
			c0,5.8,3.8,11.1,9.5,12.4c8.2,1.9,15.5-4.2,15.5-12v-150.2c0.6,1.2,1.2,2.6,1.8,4.2c2.8,7.8,5.2,20.7,5.2,40.7
			c0,5.5-0.2,11.6-0.6,18.3c-0.3,4.4,3.1,8.2,7.6,8.5C272.2,1567.9,272.4,1567.9,272.5,1567.9z"/>
		<circle cx="230.6" cy="1444.3" r="22.5"/>
	</g>
</g>
<g>
	<g>
		<path d="M405.5,1567.9c4.3,0,7.8-3.3,8.1-7.5c0.4-6.9,0.6-13.3,0.6-19.2c0-30.2-4.9-47-11.6-57c-3.3-5-7.2-8.2-10.8-10
			c-3.4-1.7-6.4-2.1-8.2-2.1c-0.2,0-0.3,0-0.5,0h-39.4c-0.2,0-0.3,0-0.5,0c-1.8,0-4.8,0.4-8.2,2.1c-5.4,2.7-11.3,8.5-15.4,18.9
			c-4.2,10.4-6.9,25.4-7,48.1c0,5.9,0.2,12.2,0.6,19.2c0.3,4.3,3.8,7.5,8.1,7.5c0.2,0,0.3,0,0.5,0c4.5-0.3,7.9-4.1,7.6-8.5
			c-0.4-6.7-0.6-12.7-0.6-18.3c0-24.3,3.5-37.9,7-45v150c0,5.8,3.8,11.1,9.5,12.4c8.2,1.9,15.5-4.2,15.5-12V1556h5v90.1
			c0,5.8,3.8,11.1,9.5,12.4c8.2,1.9,15.5-4.2,15.5-12v-150.2c0.6,1.2,1.2,2.6,1.8,4.2c2.8,7.8,5.2,20.7,5.2,40.7
			c0,5.5-0.2,11.6-0.6,18.3c-0.3,4.4,3.1,8.2,7.6,8.5C405.2,1567.9,405.4,1567.9,405.5,1567.9z"/>
		<circle cx="363.6" cy="1444.3" r="22.5"/>
	</g>
</g>
<g>
	<g>
		<path d="M538.5,1565.9c4.3,0,7.8-3.3,8.1-7.5c0.4-6.9,0.6-13.3,0.6-19.2c0-30.2-4.9-47-11.6-57c-3.3-5-7.2-6.2-10.8-8
			c-3.4-1.7-6.4-2.1-8.2-2.1c-0.2,0-0.3,0-0.5,0h-39.4c-0.2,0-0.3,0-0.5,0c-1.8,0-4.8,0.4-8.2,2.1c-5.4,2.7-11.3,6.5-15.4,16.9
			c-4.2,10.4-6.9,25.4-7,48.1c0,5.9,0.2,12.2,0.6,19.2c0.3,4.3,3.8,7.5,8.1,7.5c0.2,0,0.3,0,0.5,0c4.5-0.3,7.9-2.1,7.6-6.5
			c-0.4-6.7-0.6-12.7-0.6-18.3c0-24.3,3.5-37.9,7-45v150c0,5.8,3.8,11.1,9.5,12.4c8.2,1.9,15.5-4.2,15.5-12V1556h5v90.1
			c0,5.8,3.8,11.1,9.5,12.4c8.2,1.9,15.5-4.2,15.5-12v-150.2c0.6,1.2,1.2,2.6,1.8,4.2c2.8,7.8,5.2,20.7,5.2,40.7
			c0,5.5-0.2,11.6-0.6,18.3c-0.3,4.4,3.1,6.2,7.6,6.5C538.2,1565.9,538.4,1565.9,538.5,1565.9z"/>
		<circle cx="496.6" cy="1444.3" r="22.5"/>
	</g>
</g>
<g>
	<g>
		<path d="M671.5,1567.9c4.3,0,7.8-3.3,8.1-7.5c0.4-6.9,0.6-13.3,0.6-19.2c0-30.2-4.9-47-11.6-57c-3.3-5-7.2-8.2-10.8-10
			c-3.4-1.7-6.4-2.1-8.2-2.1c-0.2,0-0.3,0-0.5,0h-39.4c-0.2,0-0.3,0-0.5,0c-1.8,0-4.8,0.4-8.2,2.1c-5.4,2.7-11.3,8.5-15.4,18.9
			c-4.2,10.4-6.9,25.4-7,48.1c0,5.9,0.2,12.2,0.6,19.2c0.3,4.3,3.8,7.5,8.1,7.5c0.2,0,0.3,0,0.5,0c4.5-0.3,7.9-4.1,7.6-8.5
			c-0.4-6.7-0.6-12.7-0.6-18.3c0-24.3,3.5-37.9,7-45v150c0,5.8,3.8,11.1,9.5,12.4c8.2,1.9,15.5-4.2,15.5-12V1556h5v90.1
			c0,5.8,3.8,11.1,9.5,12.4c8.2,1.9,15.5-4.2,15.5-12v-150.2c0.6,1.2,1.2,2.6,1.8,4.2c2.8,7.8,5.2,20.7,5.2,40.7
			c0,5.5-0.2,11.6-0.6,18.3c-0.3,4.4,3.1,8.2,7.6,8.5C671.2,1567.9,671.4,1567.9,671.5,1567.9z"/>
		<circle cx="629.6" cy="1444.3" r="22.5"/>
	</g>
</g>
<g>
	<g>
		<path d="M804.5,1567.9c4.3,0,7.8-3.3,8.1-7.5c0.4-6.9,0.6-13.3,0.6-19.2c0-30.2-4.9-47-11.6-57c-3.3-5-7.2-8.2-10.8-10
			c-3.4-1.7-6.4-2.1-8.2-2.1c-0.2,0-0.3,0-0.5,0h-39.4c-0.2,0-0.3,0-0.5,0c-1.8,0-4.8,0.4-8.2,2.1c-5.4,2.7-11.3,8.5-15.4,18.9
			c-4.2,10.4-6.9,25.4-7,48.1c0,5.9,0.2,12.2,0.6,19.2c0.3,4.3,3.8,7.5,8.1,7.5c0.2,0,0.3,0,0.5,0c4.5-0.3,7.9-4.1,7.6-8.5
			c-0.4-6.7-0.6-12.7-0.6-18.3c0-24.3,3.5-37.9,7-45v150c0,5.8,3.8,11.1,9.5,12.4c8.2,1.9,15.5-4.2,15.5-12V1556h5v90.1
			c0,5.8,3.8,11.1,9.5,12.4c8.2,1.9,15.5-4.2,15.5-12v-150.2c0.6,1.2,1.2,2.6,1.8,4.2c2.8,7.8,5.2,20.7,5.2,40.7
			c0,5.5-0.2,11.6-0.6,18.3c-0.3,4.4,3.1,8.2,7.6,8.5C804.2,1567.9,804.4,1567.9,804.5,1567.9z"/>
		<circle cx="762.6" cy="1444.3" r="22.5"/>
	</g>
</g>
<g>
	<g>
		<path d="M932.5,1567.9c4.3,0,7.8-3.3,8.1-7.5c0.4-6.9,0.6-13.3,0.6-19.2c0-30.2-4.9-47-11.6-57c-3.3-5-7.2-8.2-10.8-10
			c-3.4-1.7-6.4-2.1-8.2-2.1c-0.2,0-0.3,0-0.5,0h-39.4c-0.2,0-0.3,0-0.5,0c-1.8,0-4.8,0.4-8.2,2.1c-5.4,2.7-11.3,8.5-15.4,18.9
			c-4.2,10.4-6.9,25.4-7,48.1c0,5.9,0.2,12.2,0.6,19.2c0.3,4.3,3.8,7.5,8.1,7.5c0.2,0,0.3,0,0.5,0c4.5-0.3,7.9-4.1,7.6-8.5
			c-0.4-6.7-0.6-12.7-0.6-18.3c0-24.3,3.5-37.9,7-45v150c0,5.8,3.8,11.1,9.5,12.4c8.2,1.9,15.5-4.2,15.5-12V1556h5v90.1
			c0,5.8,3.8,11.1,9.5,12.4c8.2,1.9,15.5-4.2,15.5-12v-150.2c0.6,1.2,1.2,2.6,1.8,4.2c2.8,7.8,5.2,20.7,5.2,40.7
			c0,5.5-0.2,11.6-0.6,18.3c-0.3,4.4,3.1,8.2,7.6,8.5C932.2,1567.9,932.4,1567.9,932.5,1567.9z"/>
		<circle cx="890.6" cy="1444.3" r="22.5"/>
	</g>
</g>
<g>
	<g>
		<path d="M1065.5,1567.9c4.3,0,7.8-3.3,8.1-7.5c0.4-6.9,0.6-13.3,0.6-19.2c0-30.2-4.9-47-11.6-57c-3.3-5-7.2-8.2-10.8-10
			c-3.4-1.7-6.4-2.1-8.2-2.1c-0.2,0-0.3,0-0.5,0h-39.4c-0.2,0-0.3,0-0.5,0c-1.8,0-4.8,0.4-8.2,2.1c-5.4,2.7-11.3,8.5-15.4,18.9
			c-4.2,10.4-6.9,25.4-7,48.1c0,5.9,0.2,12.2,0.6,19.2c0.3,4.3,3.8,7.5,8.1,7.5c0.2,0,0.3,0,0.5,0c4.5-0.3,7.9-4.1,7.6-8.5
			c-0.4-6.7-0.6-12.7-0.6-18.3c0-24.3,3.5-37.9,7-45v150c0,5.8,3.8,11.1,9.5,12.4c8.2,1.9,15.5-4.2,15.5-12V1556h5v90.1
			c0,5.8,3.8,11.1,9.5,12.4c8.2,1.9,15.5-4.2,15.5-12v-150.2c0.6,1.2,1.2,2.6,1.8,4.2c2.8,7.8,5.2,20.7,5.2,40.7
			c0,5.5-0.2,11.6-0.6,18.3c-0.3,4.4,3.1,8.2,7.6,8.5C1065.2,1567.9,1065.4,1567.9,1065.5,1567.9z"/>
		<circle cx="1023.6" cy="1444.3" r="22.5"/>
	</g>
</g>
<g>
	<g>
		<path d="M1198.5,1565.9c4.3,0,7.8-3.3,8.1-7.5c0.4-6.9,0.6-13.3,0.6-19.2c0-30.2-4.9-47-11.6-57c-3.3-5-7.2-6.2-10.8-8
			c-3.4-1.7-6.4-2.1-8.2-2.1c-0.2,0-0.3,0-0.5,0h-39.4c-0.2,0-0.3,0-0.5,0c-1.8,0-4.8,0.4-8.2,2.1c-5.4,2.7-11.3,6.5-15.4,16.9
			c-4.2,10.4-6.9,25.4-7,48.1c0,5.9,0.2,12.2,0.6,19.2c0.3,4.3,3.8,7.5,8.1,7.5c0.2,0,0.3,0,0.5,0c4.5-0.3,7.9-2.1,7.6-6.5
			c-0.4-6.7-0.6-12.7-0.6-18.3c0-24.3,3.5-37.9,7-45v150c0,5.8,3.8,11.1,9.5,12.4c8.2,1.9,15.5-4.2,15.5-12V1556h5v90.1
			c0,5.8,3.8,11.1,9.5,12.4c8.2,1.9,15.5-4.2,15.5-12v-150.2c0.6,1.2,1.2,2.6,1.8,4.2c2.8,7.8,5.2,20.7,5.2,40.7
			c0,5.5-0.2,11.6-0.6,18.3c-0.3,4.4,3.1,6.2,7.6,6.5C1198.2,1565.9,1198.4,1565.9,1198.5,1565.9z"/>
		<circle cx="1156.6" cy="1444.3" r="22.5"/>
	</g>
</g>
<g>
	<g>
		<path d="M1331.5,1567.9c4.3,0,7.8-3.3,8.1-7.5c0.4-6.9,0.6-13.3,0.6-19.2c0-30.2-4.9-47-11.6-57c-3.3-5-7.2-8.2-10.8-10
			c-3.4-1.7-6.4-2.1-8.2-2.1c-0.2,0-0.3,0-0.5,0h-39.4c-0.2,0-0.3,0-0.5,0c-1.8,0-4.8,0.4-8.2,2.1c-5.4,2.7-11.3,8.5-15.4,18.9
			c-4.2,10.4-6.9,25.4-7,48.1c0,5.9,0.2,12.2,0.6,19.2c0.3,4.3,3.8,7.5,8.1,7.5c0.2,0,0.3,0,0.5,0c4.5-0.3,7.9-4.1,7.6-8.5
			c-0.4-6.7-0.6-12.7-0.6-18.3c0-24.3,3.5-37.9,7-45v150c0,5.8,3.8,11.1,9.5,12.4c8.2,1.9,15.5-4.2,15.5-12V1556h5v90.1
			c0,5.8,3.8,11.1,9.5,12.4c8.2,1.9,15.5-4.2,15.5-12v-150.2c0.6,1.2,1.2,2.6,1.8,4.2c2.8,7.8,5.2,20.7,5.2,40.7
			c0,5.5-0.2,11.6-0.6,18.3c-0.3,4.4,3.1,8.2,7.6,8.5C1331.2,1567.9,1331.4,1567.9,1331.5,1567.9z"/>
		<circle cx="1289.6" cy="1444.3" r="22.5"/>
	</g>
</g>
<g>
	<g>
		<path d="M1464.5,1567.9c4.3,0,7.8-3.3,8.1-7.5c0.4-6.9,0.6-13.3,0.6-19.2c0-30.2-4.9-47-11.6-57c-3.3-5-7.2-8.2-10.8-10
			c-3.4-1.7-6.4-2.1-8.2-2.1c-0.2,0-0.3,0-0.5,0h-39.4c-0.2,0-0.3,0-0.5,0c-1.8,0-4.8,0.4-8.2,2.1c-5.4,2.7-11.3,8.5-15.4,18.9
			c-4.2,10.4-6.9,25.4-7,48.1c0,5.9,0.2,12.2,0.6,19.2c0.3,4.3,3.8,7.5,8.1,7.5c0.2,0,0.3,0,0.5,0c4.5-0.3,7.9-4.1,7.6-8.5
			c-0.4-6.7-0.6-12.7-0.6-18.3c0-24.3,3.5-37.9,7-45v150c0,5.8,3.8,11.1,9.5,12.4c8.2,1.9,15.5-4.2,15.5-12V1556h5v90.1
			c0,5.8,3.8,11.1,9.5,12.4c8.2,1.9,15.5-4.2,15.5-12v-150.2c0.6,1.2,1.2,2.6,1.8,4.2c2.8,7.8,5.2,20.7,5.2,40.7
			c0,5.5-0.2,11.6-0.6,18.3c-0.3,4.4,3.1,8.2,7.6,8.5C1464.2,1567.9,1464.4,1567.9,1464.5,1567.9z"/>
		<circle cx="1422.6" cy="1444.3" r="22.5"/>
	</g>
</g>
</svg>
