<?xml version="1.0" encoding="utf-8"?>
<!-- Generator: Adobe Illustrator 21.0.2, SVG Export Plug-In . SVG Version: 6.00 Build 0)  -->
<svg version="1.1" id="Layer_1" xmlns="http://www.w3.org/2000/svg" xmlns:xlink="http://www.w3.org/1999/xlink" x="0px" y="0px"
	 viewBox="0 0 100 98.3" style="enable-background:new 0 0 100 98.3;" xml:space="preserve">
<title>Artboard 15</title>
<path d="M82.2,70.8l7.9,7.9c2,2.1,5.3,2.1,7.3,0.1c2.1-2,2.1-5.3,0.1-7.3c0-0.1-0.1-0.1-0.1-0.1l-9.7-9.7C93.7,48,90.6,32,80,21.4
	l0,0c-14.3-14.3-37.6-14.3-51.9,0c-0.8,0.8-1.6,1.6-2.3,2.5l-7.9-7.9l0.8-0.8l3.5-3.5c0.8-0.8,0.9-2.2,0-3c-0.4-0.4-0.8-0.6-1.3-0.6
	L3.7,6.4C2.3,6.3,1.1,7.3,1,8.6c0,0.1,0,0.3,0,0.5l1.6,17.1c0.1,1.2,1.1,2.1,2.3,2c0.5,0,1-0.3,1.3-0.6L9.7,24l0.8-0.8l9.7,9.7
	c-5.1,12.1-3.4,25.9,4.4,36.4L9.2,84.8c-2.1,2-2.1,5.3-0.1,7.3s5.3,2.1,7.3,0.1c0.1,0,0.1-0.1,0.1-0.1L32,76.7
	c14.6,11,35.1,9.5,48-3.4C80.8,72.5,81.5,71.7,82.2,70.8z M75.1,63L60,47.9l-8.8,8.8c-1.8,1.8-4.8,1.8-6.6,0c0,0,0,0,0,0l-16-16
	c0.8-3.2,2.3-6.2,4.3-8.9l15.1,15l8.8-8.8c1.8-1.8,4.8-1.8,6.6,0c0,0,0,0,0,0l16,16C78.5,57.2,77.1,60.3,75.1,63z"/>
</svg>
