<?xml version="1.0" encoding="utf-8"?>
<!-- Generator: Adobe Illustrator 21.0.2, SVG Export Plug-In . SVG Version: 6.00 Build 0)  -->
<svg version="1.1" id="Layer_1" xmlns="http://www.w3.org/2000/svg" xmlns:xlink="http://www.w3.org/1999/xlink" x="0px" y="0px"
	 viewBox="0 0 63 65.2" style="enable-background:new 0 0 63 65.2;" xml:space="preserve">
<g>
	<path d="M9.5,18.5c0-2.8,2.2-5,5-5v-2c-3.9,0-7,3.1-7,7H9.5z"/>
	<path d="M59.5,22.8c0-0.1,0.3-9.9-10.1-11.2c-2.5-6.6-8.8-11-15.9-11c-5.9,0-11.3,3-14.4,8c-1.4-0.7-3-1-4.6-1c-6.1,0-11,4.9-11,11
		c0,1.3,0.2,2.5,0.7,3.8c-2.3,1.7-3.7,4.3-3.7,7.2c0,5,4,9,9,9h5v-2h-5c-3.9,0-7-3.1-7-7c0-4.6,4.2-6.5,4.2-6.5S5.5,21,5.5,18.5
		c0-5,4-9,9-9c2.9,0,5.3,1.7,5.3,1.7S24,2.5,33.5,2.5c11.4,0,14.5,11,14.5,11c9.7,0.3,9.7,9,9.5,10.2c0,0.1,3.1,1.8,3.1,5.8
		c0,3.9-3.1,7-7,7h-5v2h5c5,0,9-4,9-9C62.5,26.9,61.4,24.5,59.5,22.8z"/>
	<path d="M30.7,11.5c-8.2,0.4-14.9,7.1-15.2,15.3c-0.2,4.1,1.2,8,3.9,11.1c2.6,3,4.1,7.1,4.1,11.4c-0.6,0.5-1,1.3-1,2.2
		c0,0.8,0.3,1.5,0.8,2c-0.5,0.5-0.8,1.2-0.8,2c0,1.6,1.3,3,3,3c-0.1,0.3-0.2,0.7-0.2,1c0,1.7,1.3,3,3,3h6.4c1.7,0,3-1.3,3-3
		c0-0.4-0.1-0.7-0.2-1c1.6,0,3-1.4,3-3c0-0.8-0.3-1.5-0.8-2c0.5-0.5,0.8-1.2,0.8-2c0-0.9-0.4-1.7-1-2.2c0-4.2,1.6-8.3,4.3-11.6
		c2.4-2.9,3.7-6.5,3.7-10.2c0-4.4-1.8-8.5-5-11.6C39.4,12.9,35.2,11.3,30.7,11.5z M31.5,37.5c-1.1,0-2-0.9-2-2s0.9-2,2-2
		c1.1,0,2,0.9,2,2S32.6,37.5,31.5,37.5z M24.5,51.5c0-0.6,0.4-1,1-1h12c0.6,0,1,0.4,1,1s-0.4,1-1,1h-12
		C24.9,52.5,24.5,52.1,24.5,51.5z M34.7,60.5h-6.4c-0.6,0-1-0.4-1-1s0.4-1,1-1h6.4c0.6,0,1,0.4,1,1S35.3,60.5,34.7,60.5z M37.5,56.5
		h-2.8h-6.4h-2.8c-0.6,0-1-0.4-1-1s0.4-1,1-1h12c0.6,0,1,0.4,1,1S38.1,56.5,37.5,56.5z M42.3,36.4c-2.9,3.4-4.5,7.7-4.7,12.1l0,0h-5
		v-9.1c1.7-0.4,3-2,3-3.9c0-2.2-1.8-4-4-4s-4,1.8-4,4c0,1.9,1.3,3.4,3,3.9v9.1h-5l0,0c-0.2-4.5-1.8-8.7-4.6-11.9
		c-2.3-2.7-3.5-6.1-3.4-9.7c0.3-7.2,6.1-13.1,13.3-13.4c3.9-0.2,7.5,1.2,10.3,3.9s4.3,6.3,4.3,10.1C45.5,30.8,44.4,33.9,42.3,36.4z"
		/>
</g>
</svg>
