<?xml version="1.0" encoding="utf-8"?>
<!-- Generator: Adobe Illustrator 21.0.2, SVG Export Plug-In . SVG Version: 6.00 Build 0)  -->
<svg version="1.1"
	 id="Layer_1" xmlns:cc="http://creativecommons.org/ns#" xmlns:dc="http://purl.org/dc/elements/1.1/" xmlns:inkscape="http://www.inkscape.org/namespaces/inkscape" xmlns:rdf="http://www.w3.org/1999/02/22-rdf-syntax-ns#" xmlns:sodipodi="http://sodipodi.sourceforge.net/DTD/sodipodi-0.dtd" xmlns:svg="http://www.w3.org/2000/svg"
	 xmlns="http://www.w3.org/2000/svg" xmlns:xlink="http://www.w3.org/1999/xlink" x="0px" y="0px" viewBox="0 0 100 108"
	 style="enable-background:new 0 0 100 108;" xml:space="preserve">
<g transform="translate(0,-952.3622)">
	<path d="M50,957.4c-14.6,0-26.6,12-26.6,26.6v7c0,1.2,1,2.2,2.2,2.2h16.3c1.2,0,2.2-1,2.2-2.2v-7c0-3.2,2.9-6,6-6
		c3.2,0,5.9,2.9,5.9,6c0,4-1.7,7.2-4.9,9.7c-8.2,6.6-13.4,15.7-13.4,26.5v2.9c0,1.2,1,2.2,2.2,2.2h16.4c1.2,0,2.2-1,2.2-2.2v-1.6
		c0-2.7,0-4.4,1.3-6.8v-0.1c0.9-1.8,2.2-3.2,3.8-4.6h0.1c8.1-6.4,13.1-15.5,13.1-26.1C76.6,969.4,64.5,957.4,50,957.4L50,957.4z
		 M50,961.6c12.2,0,22.3,10.1,22.3,22.4c0,9.2-4.2,17-11.5,22.8l0,0c-2,1.6-3.7,3.5-4.9,6c-1.5,3-1.7,5.6-1.7,8.2H42v-0.8
		c0-9.5,4.3-17.2,11.6-23.1h0.1c4-3.2,6.5-7.9,6.5-13.1c0-5.6-4.6-10.3-10.2-10.3c-5.6,0-10.3,4.6-10.3,10.3v4.9H27.6V984
		C27.6,971.7,37.7,961.6,50,961.6L50,961.6z M39.8,1027.4c-1.2,0-2.2,1-2.2,2.2v15.6c0,1.2,1,2.2,2.2,2.2h16.4c1.2,0,2.2-1,2.2-2.2
		v-15.6c0-1.2-1-2.2-2.2-2.2H39.8z M42,1031.7h12.1v11.4H42V1031.7z"/>
</g>
</svg>
