<?xml version="1.0" encoding="utf-8"?>
<!-- Generator: Adobe Illustrator 21.0.2, SVG Export Plug-In . SVG Version: 6.00 Build 0)  -->
<svg version="1.1" id="Layer_1" xmlns="http://www.w3.org/2000/svg" xmlns:xlink="http://www.w3.org/1999/xlink" x="0px" y="0px"
	 viewBox="0 0 100 103.8" style="enable-background:new 0 0 100 103.8;" xml:space="preserve">
<title>Artboard 25</title>
<path d="M10.7,12.1c0-5,4.1-9.1,9.1-9.1S29,7,29,12.1s-4.1,9.1-9.1,9.1S10.7,17.1,10.7,12.1L10.7,12.1z M20.5,78h-8
	c-5.4,0-9.9,4.4-9.9,9.9c0,0,0,0,0,0v4.7c0,2.5,2,4.5,4.5,4.5h18.7c2.5,0,4.5-2,4.5-4.5v-4.7C30.4,82.4,26,78,20.5,78L20.5,78z
	 M24.9,66.9c0-4.6-3.7-8.4-8.3-8.4s-8.4,3.7-8.4,8.4c0,4.6,3.7,8.3,8.3,8.3h0C21.1,75.2,24.9,71.5,24.9,66.9z M87.5,78h-8
	c-5.4,0-9.9,4.4-9.9,9.9l0,0v4.7c0,2.5,2,4.5,4.5,4.5h18.7c2.5,0,4.5-2,4.5-4.5v-4.7C97.4,82.4,93,78,87.5,78L87.5,78z M91.9,66.9
	c0-4.6-3.7-8.4-8.3-8.4s-8.3,3.7-8.3,8.4c0,4.6,3.7,8.3,8.3,8.3l0,0C88.1,75.2,91.9,71.5,91.9,66.9z M54,78h-8
	c-5.4,0-9.9,4.4-9.9,9.9l0,0v4.7c0,2.5,2,4.5,4.5,4.5h18.7c2.5,0,4.5-2,4.5-4.5v-4.7C63.9,82.4,59.5,78,54,78C54,78,54,78,54,78z
	 M58.3,66.9c0-4.6-3.7-8.3-8.4-8.3c-4.6,0-8.3,3.7-8.3,8.4s3.7,8.3,8.4,8.3c0,0,0,0,0,0C54.6,75.2,58.3,71.5,58.3,66.9L58.3,66.9z
	 M51.3,33.7c1.7-1.4,1.9-3.8,0.6-5.5c-1.4-1.7-3.8-1.9-5.5-0.6c0,0-0.1,0.1-0.1,0.1l-10.3,9c-3.8-3.5-9.8-9.2-11.1-10.4l-0.2-0.2
	l0,0l0,0c-1.5-1.5-3.6-2.3-5.7-2.2h-8.2c-4.5,0-8.2,3.7-8.2,8.2c0,0,0,0,0,0v16.3c0,2.5,2,4.5,4.5,4.5h15.5c2.5,0,4.5-2,4.5-4.5
	v-9.2l6.1,5.6c1.5,1.4,3.7,1.4,5.2,0.1L51.3,33.7z M94.6,3.3H39.4c-1.5-0.1-2.9,1.1-3,2.6c-0.1,1.5,1.1,2.9,2.6,3c0.1,0,0.2,0,0.3,0
	h55.2c1.5-0.1,2.7-1.4,2.6-3C97.1,4.5,96,3.4,94.6,3.3z M94.6,14.4H39.4c-1.5-0.1-2.9,1.1-3,2.6c-0.1,1.5,1.1,2.9,2.6,3
	c0.1,0,0.2,0,0.3,0h55.2c1.5-0.1,2.7-1.4,2.6-3C97.1,15.7,96,14.5,94.6,14.4z M94.6,25.6H61.7c-1.5-0.1-2.9,1.1-3,2.6
	c-0.1,1.5,1.1,2.9,2.6,3c0.1,0,0.2,0,0.3,0h32.9c1.5-0.1,2.7-1.4,2.6-3C97.1,26.8,96,25.7,94.6,25.6z M94.6,36.7H58.3
	c-1.5-0.1-2.9,1.1-3,2.6c-0.1,1.5,1.1,2.9,2.6,3c0.1,0,0.2,0,0.3,0h36.2c1.5-0.1,2.7-1.4,2.6-3C97.1,37.9,96,36.8,94.6,36.7z
	 M94.6,47.8H45.7c-1.5-0.1-2.9,1.1-3,2.6c-0.1,1.5,1.1,2.9,2.6,3c0.1,0,0.2,0,0.3,0h48.9c1.5,0.1,2.9-1.1,3-2.6
	c0.1-1.5-1.1-2.9-2.6-3C94.8,47.8,94.7,47.8,94.6,47.8z"/>
</svg>
