<?xml version="1.0" encoding="utf-8"?>
<!-- Generator: Adobe Illustrator 21.0.2, SVG Export Plug-In . SVG Version: 6.00 Build 0)  -->
<svg version="1.1" id="Layer_1" xmlns="http://www.w3.org/2000/svg" xmlns:xlink="http://www.w3.org/1999/xlink" x="0px" y="0px"
	 viewBox="0 0 675 384" style="enable-background:new 0 0 675 384;" xml:space="preserve">
<style type="text/css">
	.st0{fill:none;}
	.st1{font-family:'CrimsonText-Roman';}
	.st2{font-size:36px;}
	.st3{fill:#8CD3C7;}
	.st4{fill:#D6E5E3;}
	.st5{font-family:'CrimsonText-Bold';}
</style>
<rect x="144" y="140.6" class="st0" width="93" height="29.4"/>
<text transform="matrix(1 0 0 1 144 164.9956)" class="st1 st2">Indian</text>
<rect x="131.3" y="174.6" class="st0" width="112.7" height="30.4"/>
<text transform="matrix(1 0 0 1 131.2729 198.9956)" class="st1 st2">Korean</text>
<rect x="123" y="209.6" class="st0" width="131" height="46.4"/>
<text transform="matrix(1 0 0 1 123 233.9956)" class="st1 st2">Chinese</text>
<rect x="126" y="243.6" class="st0" width="129" height="46.4"/>
<text transform="matrix(1 0 0 1 126 267.9956)" class="st1 st2">Filipino</text>
<rect x="116" y="278.6" class="st0" width="139" height="46.4"/>
<text transform="matrix(1 0 0 1 116 302.9956)" class="st1 st2">Japanese</text>
<rect x="71.3" y="317.6" class="st0" width="184.7" height="46.4"/>
<text transform="matrix(1 0 0 1 71.2729 341.9956)" class="st1 st2">Vietnamese</text>
<rect x="269" y="141" class="st3" width="298.5" height="28.5"/>
<rect x="269" y="176" class="st4" width="245" height="29"/>
<rect x="269" y="211" class="st4" width="232" height="29"/>
<rect x="269" y="247" class="st4" width="216" height="29"/>
<rect x="269" y="282" class="st4" width="205" height="29"/>
<rect x="269" y="317" class="st3" width="108" height="29"/>
<rect x="582" y="140.6" class="st0" width="93" height="29.4"/>
<text transform="matrix(1 0 0 1 582 165.0308)" class="st5 st2">70%</text>
<rect x="535" y="174.6" class="st0" width="93" height="29.4"/>
<text transform="matrix(1 0 0 1 535 199.0308)" class="st5 st2">53</text>
<rect x="514" y="213.6" class="st0" width="93" height="29.4"/>
<text transform="matrix(1 0 0 1 514 238.0308)" class="st5 st2">51</text>
<rect x="497" y="252.6" class="st0" width="93" height="29.4"/>
<text transform="matrix(1 0 0 1 497 277.0308)" class="st5 st2">47</text>
<rect x="485" y="281.6" class="st0" width="93" height="29.4"/>
<text transform="matrix(1 0 0 1 485 306.0308)" class="st5 st2">46</text>
<rect x="385" y="316.6" class="st0" width="93" height="29.4"/>
<text transform="matrix(1 0 0 1 385 341.0308)" class="st5 st2">26</text>
<rect x="74.8" y="32" class="st0" width="581.3" height="73"/>
<text transform="matrix(1 0 0 1 81.6318 56.4336)" class="st5 st2">Percentage of Asian Americans with</text>
<text transform="matrix(1 0 0 1 161.9318 99.6336)" class="st5 st2">at least a bachelor’s degree</text>
</svg>
