<?xml version="1.0" encoding="utf-8"?>
<!-- Generator: Adobe Illustrator 21.0.2, SVG Export Plug-In . SVG Version: 6.00 Build 0)  -->
<svg version="1.1" id="Layer_1" xmlns="http://www.w3.org/2000/svg" xmlns:xlink="http://www.w3.org/1999/xlink" x="0px" y="0px"
	 viewBox="0 0 789 434" style="enable-background:new 0 0 789 434;" xml:space="preserve">
<style type="text/css">
	.st0{fill:none;}
	.st1{font-family:'CrimsonText-Roman';}
	.st2{font-size:36px;}
	.st3{fill:#EFF993;}
	.st4{font-family:'CrimsonText-Bold';}
	.st5{font-family:'CrimsonText-Italic';}
	.st6{fill:#F2F7CB;}
</style>
<rect x="184" y="142.6" class="st0" width="83" height="29.4"/>
<text transform="matrix(1 0 0 1 184 166.9956)" class="st1 st2">Asian</text>
<rect x="172" y="179.6" class="st0" width="99" height="30.4"/>
<text transform="matrix(1 0 0 1 172 203.9956)" class="st1 st2">White</text>
<rect x="51" y="217.6" class="st0" width="227" height="28.4"/>
<text transform="matrix(1 0 0 1 51 241.9956)" class="st1 st2">Pacific Islander</text>
<rect x="28" y="253.6" class="st0" width="243" height="29.4"/>
<text transform="matrix(1 0 0 1 28 277.9956)" class="st1 st2">National average</text>
<rect x="28" y="292.6" class="st0" width="259" height="27.4"/>
<text transform="matrix(1 0 0 1 28 316.9956)" class="st1 st2">American Indian</text>
<rect x="295" y="143" class="st3" width="341" height="29"/>
<rect x="653" y="142.6" class="st0" width="136" height="29.4"/>
<text transform="matrix(1 0 0 1 653 167.0308)" class="st4 st2">$71,709</text>
<rect x="28" y="79" class="st0" width="747.1" height="56"/>
<text transform="matrix(1 0 0 1 153.2002 103.4336)" class="st4 st2">Median household income</text>
<text transform="matrix(1 0 0 1 564.2002 103.4336)" class="st5 st2"> (2012)</text>
<rect x="295" y="180" class="st6" width="255" height="28.5"/>
<rect x="295" y="217" class="st6" width="246" height="28.5"/>
<rect x="295" y="254" class="st6" width="237" height="28.5"/>
<rect x="295" y="291" class="st6" width="205" height="29"/>
<rect x="295" y="328" class="st6" width="189" height="28.5"/>
<rect x="295" y="366" class="st6" width="171" height="27.5"/>
<rect x="563" y="179.6" class="st0" width="136" height="29.4"/>
<text transform="matrix(1 0 0 1 563 204.0308)" class="st4 st2">$56,203</text>
<rect x="557" y="217.6" class="st0" width="136" height="29.4"/>
<text transform="matrix(1 0 0 1 557 242.0308)" class="st4 st2">$54,938</text>
<rect x="550" y="253.6" class="st0" width="136" height="29.4"/>
<text transform="matrix(1 0 0 1 550 278.0308)" class="st4 st2">$53,046</text>
<rect x="517" y="291.6" class="st0" width="136" height="29.4"/>
<text transform="matrix(1 0 0 1 517 316.0308)" class="st4 st2">$41,994</text>
<rect x="500" y="328.6" class="st0" width="136" height="29.4"/>
<text transform="matrix(1 0 0 1 500 353.0308)" class="st4 st2">$37,469</text>
<rect x="480" y="366.6" class="st0" width="136" height="29.4"/>
<text transform="matrix(1 0 0 1 480 391.0308)" class="st4 st2">$35,564</text>
<rect x="141" y="327.6" class="st0" width="155" height="29.4"/>
<text transform="matrix(1 0 0 1 141 351.9956)" class="st1 st2">Hispanic</text>
<rect x="187" y="365.6" class="st0" width="77" height="28.4"/>
<text transform="matrix(1 0 0 1 187 389.9956)" class="st1 st2">Black</text>
</svg>
