<?xml version="1.0" encoding="utf-8"?>
<!-- Generator: Adobe Illustrator 21.0.2, SVG Export Plug-In . SVG Version: 6.00 Build 0)  -->
<svg version="1.1" id="Layer_1" xmlns="http://www.w3.org/2000/svg" xmlns:xlink="http://www.w3.org/1999/xlink" x="0px" y="0px"
	 viewBox="0 0 832 607" style="enable-background:new 0 0 832 607;" xml:space="preserve">
<style type="text/css">
	.st0{fill:none;}
	.st1{font-family:'CrimsonText-Roman';}
	.st2{font-size:36px;}
	.st3{fill:#8CD3C7;}
	.st4{font-family:'CrimsonText-Bold';}
	.st5{font-family:'CrimsonText-Italic';}
	.st6{fill:#D6E5E3;}
</style>
<rect x="147" y="142.6" class="st0" width="93" height="29.4"/>
<text transform="matrix(1 0 0 1 147 166.9956)" class="st1 st2">Indian</text>
<rect x="127.3" y="179.6" class="st0" width="112.7" height="30.4"/>
<text transform="matrix(1 0 0 1 127.2729 203.9956)" class="st1 st2">Filipino</text>
<rect x="124" y="217.6" class="st0" width="131" height="46.4"/>
<text transform="matrix(1 0 0 1 124 241.9956)" class="st1 st2">Chinese</text>
<rect x="82" y="253.6" class="st0" width="168" height="46.4"/>
<text transform="matrix(1 0 0 1 82 277.9956)" class="st1 st2">Indonesian</text>
<rect x="127" y="292.6" class="st0" width="139" height="46.4"/>
<text transform="matrix(1 0 0 1 127 316.9956)" class="st1 st2">Tongan</text>
<rect x="72.3" y="328.6" class="st0" width="184.7" height="46.4"/>
<text transform="matrix(1 0 0 1 72.2729 352.9956)" class="st1 st2">Vietnamese</text>
<rect x="269" y="143" class="st3" width="379" height="29"/>
<rect x="663" y="142.6" class="st0" width="136" height="29.4"/>
<text transform="matrix(1 0 0 1 663 167.0308)" class="st4 st2">$95,000</text>
<rect x="167.8" y="79" class="st0" width="581.3" height="56"/>
<text transform="matrix(1 0 0 1 210.1045 103.4336)" class="st4 st2">Median household income</text>
<text transform="matrix(1 0 0 1 621.1045 103.4336)" class="st5 st2"> (2012)</text>
<rect x="126.3" y="365.6" class="st0" width="113.7" height="44.4"/>
<text transform="matrix(1 0 0 1 126.2729 389.9956)" class="st1 st2">Samoan</text>
<rect x="76.3" y="402.6" class="st0" width="169.7" height="43.4"/>
<text transform="matrix(1 0 0 1 76.2729 426.9956)" class="st1 st2">Cambodian</text>
<rect x="131.3" y="440.6" class="st0" width="111.7" height="39.4"/>
<text transform="matrix(1 0 0 1 131.2729 464.9956)" class="st1 st2">Hmong</text>
<rect x="69.3" y="486.6" class="st0" width="184.7" height="46.4"/>
<text transform="matrix(1 0 0 1 69.2729 510.9956)" class="st1 st2">Bangladeshi</text>
<rect x="269" y="180" class="st6" width="341" height="28.5"/>
<rect x="269" y="217" class="st6" width="316" height="28.5"/>
<rect x="269" y="254" class="st6" width="298.5" height="28.5"/>
<rect x="269" y="291" class="st6" width="285" height="29"/>
<rect x="269" y="328" class="st6" width="261" height="28.5"/>
<rect x="269" y="366" class="st6" width="246" height="27.5"/>
<rect x="269" y="402" class="st6" width="238" height="29"/>
<rect x="269" y="446" class="st6" width="228" height="25.5"/>
<rect x="270" y="484" class="st3" width="197" height="29"/>
<rect x="623" y="179.6" class="st0" width="136" height="29.4"/>
<text transform="matrix(1 0 0 1 623 204.0308)" class="st4 st2">$80,000</text>
<rect x="597" y="216.6" class="st0" width="136" height="29.4"/>
<text transform="matrix(1 0 0 1 597 241.0308)" class="st4 st2">$71,000</text>
<rect x="580" y="253.6" class="st0" width="136" height="29.4"/>
<text transform="matrix(1 0 0 1 580 278.0308)" class="st4 st2">$69,400</text>
<rect x="568" y="290.6" class="st0" width="136" height="29.4"/>
<text transform="matrix(1 0 0 1 568 315.0308)" class="st4 st2">$66,800</text>
<rect x="542" y="327.6" class="st0" width="136" height="29.4"/>
<text transform="matrix(1 0 0 1 542 352.0308)" class="st4 st2">$58,800</text>
<rect x="529" y="364.6" class="st0" width="136" height="29.4"/>
<text transform="matrix(1 0 0 1 529 389.0308)" class="st4 st2">$55,950</text>
<rect x="520" y="403.6" class="st0" width="136" height="29.4"/>
<text transform="matrix(1 0 0 1 520 428.0308)" class="st4 st2">$53,700</text>
<rect x="512" y="445.6" class="st0" width="136" height="29.4"/>
<text transform="matrix(1 0 0 1 512 470.0308)" class="st4 st2">$52,500</text>
<rect x="480" y="483.6" class="st0" width="136" height="29.4"/>
<text transform="matrix(1 0 0 1 480 508.0308)" class="st4 st2">$46,950</text>
</svg>
