<?xml version="1.0" encoding="utf-8"?>
<!-- Generator: Adobe Illustrator 21.0.2, SVG Export Plug-In . SVG Version: 6.00 Build 0)  -->
<svg version="1.1" id="Layer_1" xmlns="http://www.w3.org/2000/svg" xmlns:xlink="http://www.w3.org/1999/xlink" x="0px" y="0px"
	 viewBox="0 0 16 20" style="enable-background:new 0 0 16 20;" xml:space="preserve">
<g>
	<path d="M4,11c-1.7,0-3-1.3-3-3s1.3-3,3-3s3,1.3,3,3S5.7,11,4,11z M4,7C3.4,7,3,7.4,3,8s0.4,1,1,1s1-0.4,1-1S4.6,7,4,7z M12,6
		c-1.7,0-3-1.3-3-3s1.3-3,3-3s3,1.3,3,3S13.7,6,12,6z M12,2c-0.6,0-1,0.4-1,1s0.4,1,1,1s1-0.4,1-1S12.6,2,12,2z M12,16
		c-1.7,0-3-1.3-3-3s1.3-3,3-3s3,1.3,3,3S13.7,16,12,16z M12,12c-0.6,0-1,0.4-1,1s0.4,1,1,1s1-0.4,1-1S12.6,12,12,12z M6.2,8.2
		l4.6,2.9l-1.1,1.7L5.2,9.9L6.2,8.2z M9.8,3.2l1.1,1.7L6.2,7.8L5.2,6.1L9.8,3.2z"/>
</g>
</svg>
