<?xml version="1.0" encoding="utf-8"?>
<!-- Generator: Adobe Illustrator 21.0.2, SVG Export Plug-In . SVG Version: 6.00 Build 0)  -->
<svg version="1.1" id="Layer_1" xmlns="http://www.w3.org/2000/svg" xmlns:xlink="http://www.w3.org/1999/xlink" x="0px" y="0px"
	 viewBox="0 0 20 20" style="enable-background:new 0 0 20 20;" xml:space="preserve">
<g>
	<path d="M17.8,15.3h-1.4V7.7h1.4V5.9H2.3v1.8h1.1v7.6H2.3V17h-1v1.8h17.4V17h-0.9V15.3z M9,15.3V7.7h1.9v7.6
		C10.9,15.3,9,15.3,9,15.3z M14.6,15.3h-1.9V7.7h1.9V15.3z M5.2,7.7h1.9v7.6H5.2V7.7z"/>
	<polygon points="18.7,3.6 18.7,3.6 18.7,3.6 18.7,3.6 10,1.4 1.3,3.6 1.3,3.6 1.3,3.6 1.3,3.6 1.3,3.6 1.3,5.4 18.7,5.4 	"/>
</g>
</svg>
