<?xml version="1.0" encoding="utf-8"?>
<!-- Generator: Adobe Illustrator 21.0.2, SVG Export Plug-In . SVG Version: 6.00 Build 0)  -->
<svg version="1.1" id="Layer_1" xmlns="http://www.w3.org/2000/svg" xmlns:xlink="http://www.w3.org/1999/xlink" x="0px" y="0px"
	 viewBox="0 0 100 101.8" style="enable-background:new 0 0 100 101.8;" xml:space="preserve">
<g>
	<path d="M50,5C25.1,5,5,25.1,5,50s20.1,45,45,45s45-20.1,45-45S74.9,5,50,5z M50,70.3c-2.1,0-3.8-1.7-3.8-3.8
		c0-2.1,1.7-3.8,3.8-3.8s3.8,1.7,3.8,3.8S52.1,70.3,50,70.3z M54.5,35.2L50,57.8l-4.5-22.6c-0.3-1.5,0.2-3.1,1.3-4.2
		c1.8-1.8,4.7-1.8,6.5,0C54.3,32.1,54.8,33.7,54.5,35.2z"/>
</g>
</svg>
