<?xml version="1.0" encoding="utf-8"?>
<!-- Generator: Adobe Illustrator 21.0.2, SVG Export Plug-In . SVG Version: 6.00 Build 0)  -->
<svg version="1.1" id="Layer_1" xmlns="http://www.w3.org/2000/svg" xmlns:xlink="http://www.w3.org/1999/xlink" x="0px" y="0px"
	 viewBox="0 0 100 105" style="enable-background:new 0 0 100 105;" xml:space="preserve">
<path d="M90.6,33.5c-6-22.6-29.1-36.2-51.8-30.2C16.2,9.2,2.7,32.4,8.7,55c2.8,10.7,9.5,19.4,18.2,24.9L15.7,97l44.7-11.8
	C83.1,79.3,96.6,56.1,90.6,33.5z M30.1,49.6c-3.4,0-6.2-2.8-6.2-6.2s2.8-6.2,6.2-6.2s6.2,2.8,6.2,6.2C36.3,46.8,33.6,49.6,30.1,49.6
	z M50.1,49.6c-3.4,0-6.2-2.8-6.2-6.2s2.8-6.2,6.2-6.2s6.2,2.8,6.2,6.2S53.5,49.6,50.1,49.6z M69.6,49.6c-3.4,0-6.2-2.8-6.2-6.2
	s2.8-6.2,6.2-6.2s6.2,2.8,6.2,6.2C75.8,46.8,73,49.6,69.6,49.6z"/>
</svg>
