<?xml version="1.0" encoding="utf-8"?>
<!-- Generator: Adobe Illustrator 21.0.2, SVG Export Plug-In . SVG Version: 6.00 Build 0)  -->
<svg version="1.1" id="Layer_1" xmlns="http://www.w3.org/2000/svg" xmlns:xlink="http://www.w3.org/1999/xlink" x="0px" y="0px"
	 viewBox="0 0 100 104.2" style="enable-background:new 0 0 100 104.2;" xml:space="preserve">
<path d="M18.1,96c-0.2,0-0.4,0-0.5-0.1c-0.5-0.3-0.6-0.9-0.3-1.4c0.1-0.1,8.6-14,8.4-21c-0.2-7.1-2.2-14.7-4.8-18.5
	c-2.7-3.9-6.6-13.1-6.3-20.3c0.3-7.8,7-30.1,33.4-29.7c11.9,0.2,26.9,3.9,30.9,20.8l0.1,0.4c0.2,0.8,0.4,1.6,0.6,2.3
	c0.7,2.5,1.4,4.9,0.9,7.4c-0.5,2.7-0.4,3,1,5.4c0.4,0.6,1,1.5,1.6,2.4c2.1,3,3.6,5.2,3.7,6.8c0.2,2.9-1.6,3.8-3.4,4.3
	c-0.5,0.2-1,0.4-1.2,0.9c-0.1,0.3-0.1,0.7,0.1,1.1c0.5,1.2,0.4,2.1,0.1,2.7c-0.2,0.5-0.5,1-1,1.3c0.6,1.1,0.7,2.4-0.8,3.8
	c-0.7,0.7-0.6,1.1-0.3,1.7c0,0.1,0.1,0.2,0.1,0.3c0.4,1.1,0.8,5.7-2,7.2c-1.2,0.6-3.5,0.9-6.1,1.3c-2.5,0.3-5.6,0.7-6.5,1.4
	c-1.8,1.4-2.6,4.5-2,7.7c0.3,1.6-0.1,2.9-0.5,4.4c-0.4,1.5-0.9,3.5-0.9,6.1c0,0.5-0.5,1.2-1,1.2c0,0,0,0,0,0c-0.6,0-1-0.7-1-1.3
	c0-2.8,0.6-4.9,1-6.4c0.4-1.4,0.7-2.4,0.5-3.6c-0.7-3.9,0.4-7.7,2.7-9.6c1.3-1,4.3-1.4,7.5-1.8c2.1-0.3,4.6-0.6,5.4-1.1
	c1.6-0.9,1.3-4.3,1.1-4.8l-0.1-0.2c-0.3-0.8-0.8-2.2,0.8-3.8c0.8-0.8,0.8-1.1,0-2.2l-0.7-1l1.2-0.5c0.4-0.2,0.8-0.5,0.9-0.8
	c0.1-0.3,0.1-0.7-0.1-1.1c-0.6-1.3-0.4-2.2-0.2-2.8c0.4-0.9,1.2-1.6,2.4-2c1.7-0.6,2.1-1,2-2.3c-0.1-1.1-2-3.9-3.3-5.8
	c-0.7-1-1.3-1.9-1.7-2.6c-1.6-2.8-1.9-3.5-1.2-6.8c0.4-2-0.2-4.1-0.9-6.4c-0.2-0.8-0.5-1.6-0.7-2.4l-0.1-0.4
	c-3-12.6-12.8-19-29-19.3c-0.2,0-0.4,0-0.6,0C18.3,7,16.6,34.5,16.6,34.8c-0.2,6.8,3.4,15.4,6,19.1c2.8,4,4.9,12,5.1,19.5
	c0.2,7.6-8.3,21.5-8.7,22.1C18.8,95.8,18.4,96,18.1,96z"/>
<path d="M67.4,31.8c0.3-0.6,0.6-1.3,0.9-2l-2.6-2.5c0.1-0.6,0.2-1.2,0.2-1.8l3.1-1.9c-0.1-0.7-0.2-1.4-0.4-2.1c0-0.1,0-0.1-0.1-0.2
	c-0.2-0.7-0.5-1.4-0.8-2l-3.6,0c-0.3-0.5-0.7-1-1.1-1.5l0.8-3.5c-0.6-0.4-1.1-0.8-1.8-1.2c0,0-0.1,0-0.1-0.1c0,0-0.1,0-0.1,0
	c-0.6-0.3-1.3-0.6-2-0.9l-2.5,2.6c-0.6-0.1-1.2-0.2-1.8-0.2l-1.9-3.1c-0.7,0.1-1.4,0.2-2.1,0.4c-0.1,0-0.1,0-0.2,0.1
	c-0.7,0.2-1.3,0.5-2,0.8l0,3.6c-0.5,0.3-1,0.7-1.5,1.1l-3.5-0.8c-0.4,0.6-0.8,1.1-1.2,1.8c0,0,0,0.1,0,0.1s0,0.1,0,0.1
	c-0.3,0.6-0.6,1.3-0.9,2l2.6,2.5c-0.1,0.6-0.2,1.2-0.2,1.8l-3.1,1.9c0.1,0.7,0.2,1.4,0.4,2.1c0,0.1,0,0.1,0.1,0.2
	c0.2,0.7,0.5,1.4,0.8,2l3.6,0c0.3,0.5,0.7,1,1.1,1.5L46.7,36c0.6,0.4,1.1,0.8,1.8,1.2c0,0,0.1,0,0.1,0c0,0,0.1,0,0.1,0
	c0.6,0.3,1.3,0.6,2,0.9l2.5-2.6c0.6,0.1,1.2,0.2,1.8,0.2l1.9,3.1c0.7-0.1,1.4-0.2,2.1-0.4c0.1,0,0.1,0,0.2-0.1
	c0.7-0.2,1.3-0.5,2-0.8l0-3.6c0.5-0.3,1-0.7,1.5-1.1l3.5,0.8c0.4-0.6,0.8-1.1,1.2-1.8C67.3,31.9,67.3,31.9,67.4,31.8
	C67.4,31.8,67.4,31.8,67.4,31.8z M61.9,30.7c-0.8,0.9-1.7,1.7-2.8,2.2l0,3.4c-0.4,0.1-0.9,0.3-1.3,0.4l-1.8-2.9
	c-1.2,0.1-2.4,0-3.5-0.4l-2.4,2.4c-0.2-0.1-0.4-0.2-0.6-0.3s-0.4-0.2-0.6-0.4l0.8-3.3C48.8,31,48,30.1,47.5,29l-3.4,0
	c-0.1-0.4-0.3-0.9-0.4-1.3l2.9-1.8c-0.1-1.2,0-2.4,0.4-3.5L44.6,20c0.1-0.2,0.2-0.4,0.3-0.6c0.1-0.2,0.2-0.4,0.4-0.6l3.3,0.8
	c0.8-0.9,1.7-1.7,2.8-2.2l0-3.4c0.4-0.1,0.9-0.3,1.3-0.4l1.8,2.9c1.2-0.1,2.4,0,3.5,0.4l2.4-2.4c0.2,0.1,0.4,0.2,0.6,0.3
	c0.2,0.1,0.4,0.2,0.6,0.4l-0.8,3.3c0.9,0.8,1.7,1.7,2.2,2.8l3.4,0c0.1,0.4,0.3,0.9,0.4,1.3l-2.9,1.8c0.1,1.2,0,2.4-0.4,3.5l2.4,2.4
	c-0.1,0.2-0.2,0.4-0.3,0.6c-0.1,0.2-0.2,0.4-0.4,0.6L61.9,30.7z"/>
<path d="M55.4,29.8c-0.8,0-1.6-0.2-2.3-0.6c-2.3-1.3-3.2-4.2-1.9-6.5c1.3-2.3,4.2-3.2,6.5-1.9c2.3,1.3,3.2,4.2,1.9,6.5l0,0
	c-0.6,1.1-1.6,1.9-2.9,2.3C56.3,29.7,55.8,29.8,55.4,29.8z M55.4,22.1c-1,0-2,0.5-2.5,1.4c-0.4,0.7-0.5,1.4-0.2,2.1
	c0.2,0.7,0.7,1.3,1.3,1.7c0.7,0.4,1.4,0.5,2.1,0.2c0.7-0.2,1.3-0.7,1.7-1.3l0,0c0.8-1.4,0.3-3.1-1.1-3.8
	C56.3,22.2,55.8,22.1,55.4,22.1z"/>
<circle cx="33.8" cy="43.6" r="1.4"/>
<path d="M39.6,42.6c0-0.1,0-0.1,0-0.2s0-0.1,0-0.2l1.6-2.7c-0.6-1.1-1.4-2-2.4-2.7L35.9,38c-0.1,0-0.2-0.1-0.3-0.1L34,35.2
	c-0.6,0-1.2,0-1.8,0.1c-0.6,0.1-1.2,0.3-1.7,0.5L30.1,39c-0.1,0.1-0.2,0.2-0.3,0.2l-3.2,0c-0.6,1-1,2.2-1.2,3.4l2.5,1.9
	c0,0.1,0,0.1,0,0.2c0,0.1,0,0.1,0,0.2l-1.6,2.7c0.6,1.1,1.4,2,2.4,2.7l2.9-1.2c0.1,0,0.2,0.1,0.3,0.1l1.6,2.8c0.6,0,1.2,0,1.8-0.1
	c0.6-0.1,1.2-0.3,1.7-0.5l0.4-3.1c0.1-0.1,0.2-0.2,0.3-0.2l3.2,0c0.6-1,1-2.2,1.2-3.4L39.6,42.6z M39.7,45.9l-2.8,0
	c-0.3,0.4-0.8,0.8-1.2,1.1l-0.4,2.8c-0.1,0-0.2,0.1-0.3,0.1s-0.2,0-0.3,0l-1.4-2.5c-0.6-0.1-1.1-0.3-1.6-0.5L29.1,48
	c-0.1-0.1-0.3-0.3-0.4-0.4l1.4-2.4c-0.1-0.3-0.2-0.5-0.2-0.8c-0.1-0.3-0.1-0.6-0.1-0.8l-2.2-1.7c0.1-0.2,0.1-0.4,0.2-0.5l2.8,0
	c0.3-0.4,0.8-0.8,1.2-1.1l0.4-2.8c0.1,0,0.2,0,0.3-0.1c0.1,0,0.2,0,0.3,0l1.4,2.5c0.6,0.1,1.1,0.3,1.6,0.5l2.6-1.1
	c0.1,0.1,0.3,0.3,0.4,0.4L37.4,42c0.1,0.3,0.2,0.5,0.2,0.8c0.1,0.3,0.1,0.6,0.1,0.8l2.2,1.7C39.9,45.6,39.8,45.8,39.7,45.9z"/>
<path d="M73,22.2c-0.2-0.9-0.6-1.7-0.9-2.5l-1.8,0.8c0.3,0.7,0.6,1.4,0.8,2.2L73,22.2z"/>
<path d="M23,46.2l-1.9,0.6c0.5,1.6,1.4,3.2,2.5,4.6l1.6-1.3C24.2,48.9,23.4,47.6,23,46.2z"/>
<path d="M22.4,42.8c0-1,0.1-1.9,0.4-2.8l-1.9-0.6c-0.3,1.1-0.5,2.2-0.5,3.4c0,0.6,0.1,1.3,0.2,1.9l2-0.3
	C22.5,43.9,22.4,43.3,22.4,42.8z"/>
<path d="M25,53c1.3,1.2,2.8,2.2,4.4,3l0.8-1.8c-1.4-0.6-2.7-1.5-3.8-2.6L25,53z"/>
<path d="M26.3,34.8L25,33.3c-1.4,1.2-2.6,2.6-3.3,4.1l1.8,0.9C24.1,37,25.1,35.8,26.3,34.8z"/>
<path d="M43.2,37.7l1.3-1.5c-0.6-0.5-1.2-1.1-1.7-1.7c-0.6-0.7-1.3-1.2-2-1.8l-1.2,1.6c0.6,0.4,1.2,0.9,1.7,1.5
	C42,36.5,42.6,37.1,43.2,37.7z"/>
<path d="M32,32.3l-0.2-2c-1.8,0.2-3.5,0.8-5,1.7l1,1.7C29.1,33,30.5,32.5,32,32.3z"/>
<path d="M31.9,54.7l-0.6,1.9c1.4,0.4,2.8,0.6,4.2,0.6c0.3,0,0.7,0,1,0l-0.1-2C34.9,55.3,33.4,55.2,31.9,54.7z"/>
<path d="M64.7,39.1c-0.2,0.1-0.4,0.2-0.6,0.4l1.1,1.7c0.2-0.1,0.4-0.3,0.6-0.4c1.3-0.9,2.4-1.8,3.4-2.9l-1.5-1.4
	C66.9,37.4,65.8,38.3,64.7,39.1z"/>
<path d="M34,30.2l-0.1,2c1.5,0.1,3,0.5,4.3,1.1l0.9-1.8C37.5,30.8,35.7,30.3,34,30.2z"/>
<path d="M73.4,24.3l-2,0.3c0.1,0.7,0.2,1.5,0.2,2.2c0,0.8-0.1,1.6-0.2,2.4l2,0.3c0.2-0.9,0.2-1.8,0.2-2.8
	C73.6,25.9,73.5,25.1,73.4,24.3z"/>
<path d="M58.1,41.6l0.2,2c1.7-0.2,3.4-0.6,5.1-1.4l-0.9-1.8C61.1,41,59.6,41.4,58.1,41.6z"/>
<path d="M68.9,35.1l1.6,1.2c1-1.4,1.8-3,2.4-4.7L71,31C70.5,32.4,69.8,33.8,68.9,35.1z"/>
<path d="M51.1,42.6c1.7,0.6,3.4,1,5.1,1.1l0.1-2c-1.5-0.1-3-0.4-4.5-1L51.1,42.6z"/>
<path d="M44.8,39c1.4,1.1,2.9,2,4.3,2.8l0.9-1.8c-1.4-0.7-2.7-1.5-4-2.5L44.8,39z"/>
<path d="M39.6,54.6c-0.4,0.1-0.8,0.2-1.3,0.3l0.4,2c0.6-0.1,1.2-0.3,1.8-0.5l1,1.8l3-5.2l-6,0L39.6,54.6z"/>
<path d="M37,26.2c0,0-0.1-0.7-0.1-1.9c0-1.2,0.1-2.3,0.3-3.5l2,0.4c-0.2,1-0.3,2-0.3,3.1c0,1,0.1,1.6,0.1,1.6L37,26.2z M39.7,19.4
	l-1.9-0.6c0.6-1.7,1.4-3.3,2.5-4.7l1.6,1.2C40.9,16.5,40.2,17.9,39.7,19.4z M43.1,13.9l-1.4-1.4c1.2-1.2,2.7-2.2,4.3-3l0.9,1.8
	C45.4,12,44.1,12.9,43.1,13.9z"/>
</svg>
